<svg style="position: absolute; width: 0; height: 0; overflow: hidden;" version="1.1" xmlns="http://www.w3.org/2000/svg" xmlns:xlink="http://www.w3.org/1999/xlink">
<defs>
<symbol id="bin" viewBox="0 0 80 80">
<title>bin</title>
<path class="path1" d="M13.332 29.333h53.332v5.332h-53.332zM13.332 18.668h53.332v5.332h-53.332zM26.668 13.332h26.668v5.332h-26.668zM24 34.668h32v32h-32z"></path>
</symbol>
<symbol id="code" viewBox="0 0 80 80">
<title>code</title>
<path class="path1" d="M60.15 26.578l14.607 14.575v-2.265l-14.555 14.545 2.263 2.263 15.688-15.677-15.742-15.708-2.26 2.265z"></path>
<path class="path2" d="M17.477 24.313l-15.742 15.707 15.688 15.678 2.263-2.263-14.555-14.545v2.265l14.607-14.575-2.26-2.265z"></path>
<path class="path3" d="M30.793 63.525l21.020-47.213-2.922-1.303-21.67 48.672 2.922 1.303 0.65-1.463z"></path>
</symbol>
<symbol id="competition" viewBox="0 0 80 80">
<title>competition</title>
<path class="path1" d="M19.137 68.502l3.955-23.060-16.755-16.33 23.152-3.365 10.355-20.98 10.355 20.98 23.152 3.365-16.755 16.33 3.955 23.060-20.71-10.888zM13.217 31.348l13.315 12.98-3.142 18.328 16.46-8.652 16.46 8.652-3.143-18.328 13.315-12.98-18.403-2.675-8.23-16.675-8.23 16.675-1.665 0.242z"></path>
</symbol>
<symbol id="default" viewBox="0 0 80 80">
<title>default</title>
<path class="path1" d="M28.573 28.573h22.858v22.858h-22.858v-22.858z"></path>
<path class="path2" d="M0 28.573h22.858v22.858h-22.858v-22.858z"></path>
<path class="path3" d="M0 0h22.858v22.858h-22.858v-22.858z"></path>
<path class="path4" d="M57.142 0h22.858v22.858h-22.858v-22.858z"></path>
<path class="path5" d="M28.573 0h22.858v22.858h-22.858v-22.858z"></path>
<path class="path6" d="M0 57.142h22.858v22.858h-22.858v-22.858z"></path>
<path class="path7" d="M57.142 56.292h22.858v22.858h-22.858v-22.858z"></path>
<path class="path8" d="M28.573 56.292h22.858v22.858h-22.858v-22.858z"></path>
<path class="path9" d="M57.142 28.573h22.858v22.858h-22.858v-22.858z"></path>
</symbol>
<symbol id="embed" viewBox="0 0 80 80">
<title>embed</title>
<path class="path1" d="M17.6 28.72h55.040v-9.6h-55.040v9.6zM69.485 22.335l0.065 3.098-48.817 0.038 0.002-3.21 48.75 0.075zM1.6 44.72h76.8v-9.6h-76.8v9.6zM4.73 38.53l70.365-0.235-0.007 3.265-70.325-0.005-0.032-3.025zM1.76 60.72h51.36v-9.6h-51.36v9.6zM49.917 54.422l0.005 3.215-45.032-0.013 0.060-3.295 44.968 0.093zM67.537 57.055l1.128-1.13-8.153-8.175-2.265 2.26 5.937 5.858-5.962 5.987 2.265 2.263 7.053-7.060zM2.84 22.945l-1.128 1.13 8.152 8.175 2.265-2.26-6.040-5.907 6.065-5.935-2.265-2.263-7.053 7.060z"></path>
</symbol>
<symbol id="poll" viewBox="0 0 80 80">
<title>poll</title>
<path class="path1" d="M4.96 20.8h19.2v41.6h-19.2zM8.16 59.2h12.8v-35.2h-12.8zM78.485 68.8v-3.2h-76.805v3.2h76.805zM30.64 11.28h19.2v51.040h-19.2zM33.84 59.12h12.8v-44.64h-12.8zM56.16 30.4h19.2v32h-19.2zM59.36 33.6v25.6h12.8v-25.6z"></path>
</symbol>
<symbol id="text" viewBox="0 0 80 80">
<title>text</title>
<path class="path1" d="M49.85 14.963l14.943 14.95-39.593 39.76-14.995-0.125 0.050-14.825zM13.418 66.375l10.465 0.088 36.39-36.545-10.42-10.425-36.4 36.555zM66.433 28.025l-14.878-14.877 7.538-7.575 3.502 0.022 11.33 11.093 0.047 3.762zM56.075 13.142l10.352 10.352 4.328-4.347-0.012-1.098-9.46-9.263-0.865-0.005z"></path>
</symbol>
<symbol id="tweet" viewBox="0 0 80 80">
<title>tweet</title>
<path class="path1" d="M17.537 64.672c2.935 0.615 6.065 0.922 9.357 0.922 11.633 0 21.35-4.502 28.303-12.39 6.287-7.138 9.845-16.645 9.845-25.758 0-0.145 0-0.26-0.008-0.433-0.007-0.265-0.022-0.552-0.045-0.865-0.065-0.852-0.185-1.74-0.37-2.628-0.488-2.317-1.353-4.227-2.585-5.467-2.257-2.325-5.247-3.65-8.395-3.65-6.273 0-11.32 5.048-11.32 11.32 0 1.048 0.080 1.92 0.245 2.645l0.957 4.145-4.25-0.23c-10.903-0.593-20.898-4.895-28.493-12.078-0.030 0.328-0.045 0.663-0.045 1.005 0 3.815 1.905 7.297 5.055 9.398l9.373 6.25-11.258-0.387c-0.76-0.025-1.512-0.1-2.255-0.223 1.465 3.32 4.425 5.798 8.070 6.518l13.543 2.675-13.338 3.558c-0.617 0.165-1.253 0.295-1.898 0.393 2.042 2.22 4.953 3.61 8.087 3.652l8.935 0.115-6.977 5.583c-3.255 2.605-6.818 4.63-10.538 5.93zM68.243 27.45c0 19.197-14.603 41.347-41.348 41.347-8.203 0-15.915-1.805-22.315-5.907 1.147 0.165 2.298 0.245 3.445 0.245 6.81 0 13.125-2.953 18.047-6.89-6.318-0.083-11.733-4.348-13.535-10.090 0.902 0.165 1.805 0.248 2.707 0.248 1.313 0 2.625-0.165 3.855-0.492-6.645-1.313-11.65-7.22-11.65-14.438 1.97 1.067 4.185 1.722 6.562 1.805-3.938-2.625-6.48-7.055-6.48-12.060 0-2.707 0.737-4.922 1.97-7.055 7.22 8.777 17.885 14.275 29.942 14.93-0.245-1.067-0.328-2.215-0.328-3.363 0-8.040 6.48-14.52 14.52-14.52 4.17 0 7.933 1.793 10.637 4.568 3.233-0.662 6.303-1.883 9.055-3.5-1.058 3.333-3.323 6.185-6.318 7.993 0.005 0.013 0.010 0.025 0.013 0.038 2.918-0.335 5.677-1.15 8.272-2.288-1.952 2.93-4.392 5.458-7.155 7.5 0.095 1.025 0.095 1.745 0.095 1.935z"></path>
</symbol>
<symbol id="add-block" viewBox="0 0 80 80">
<title>add-block</title>
<path class="path1" d="M40 80c22.093 0 40-17.907 40-40s-17.907-40-40-40c-22.093 0-40 17.907-40 40s17.907 40 40 40v0zM40 77.090c-20.485 0-37.090-16.605-37.090-37.090s16.605-37.090 37.090-37.090c20.485 0 37.090 16.605 37.090 37.090s-16.605 37.090-37.090 37.090v0z"></path>
<path class="path2" d="M59.638 40.727c0 0.862-0.093 1.603-0.278 2.218s-0.73 0.925-1.632 0.925h-13.858v13.92c0 0.862-0.308 1.385-0.925 1.57s-1.355 0.278-2.218 0.278c-0.862 0-1.602-0.093-2.218-0.278s-0.925-0.708-0.925-1.57v-13.92h-13.858c-0.903 0-1.448-0.308-1.633-0.925s-0.278-1.355-0.278-2.218c0-0.862 0.093-1.602 0.278-2.218s0.73-0.925 1.633-0.925h13.857v-13.858c0-0.863 0.308-1.395 0.925-1.602s1.355-0.307 2.217-0.307c0.862 0 1.602 0.102 2.218 0.307s0.925 0.74 0.925 1.602v13.857h13.857c0.903 0 1.448 0.308 1.633 0.925s0.277 1.355 0.277 2.217v0 0z"></path>
</symbol>
<symbol id="back" viewBox="0 0 53 80">
<title>back</title>
<path class="path1" d="M40 77.71l12.57-12.57-25.137-25.142 25.137-25.143-12.57-12.57-37.71 37.71 37.71 37.71z"></path>
</symbol>
<symbol id="binopen" viewBox="0 0 75 80">
<title>binopen</title>
<path class="path1" d="M30.285 1.035l35.355 35.355-3.535 3.535-35.355-35.355zM42.66 6.338l17.677 17.678-3.535 3.538-17.68-17.68zM12.5 45h50v5h-50zM22.5 50h30v30h-30z"></path>
</symbol>
<symbol id="bottom" viewBox="0 0 73 80">
<title>bottom</title>
<path class="path1" d="M0 80v-7.272h72.728v7.272h-72.728z"></path>
<path class="path2" d="M32.727 72.728v-72.728h7.273v72.728h-7.272z"></path>
<path class="path3" d="M36.362 76.363l21.817-21.818h-43.637z"></path>
</symbol>
<symbol id="bump" viewBox="0 0 80 80">
<title>bump</title>
<path class="path1" d="M45.332 30h16.283l-21.333-20-21.332 20h15.718v20.832h10.667v-20.832zM13.332 56h53.332v10.667h-53.332z"></path>
</symbol>
<symbol id="center-align" viewBox="0 0 90 80">
<title>center-align</title>
<path class="path1" d="M0 0v8.89h88.89v-8.89h-88.89z"></path>
<path class="path2" d="M0 35.555v8.89h88.89v-8.89h-88.89z"></path>
<path class="path3" d="M0 71.11v8.89h88.89v-8.89h-88.89z"></path>
<path class="path4" d="M17.777 17.777v8.89h53.332v-8.89h-53.332z"></path>
<path class="path5" d="M17.777 53.332v8.89h53.332v-8.89h-53.332z"></path>
</symbol>
<symbol id="cross" viewBox="0 0 80 80">
<title>cross</title>
<path class="path1" d="M17.372 55.085l7.543 7.543 37.713-37.713-7.542-7.542-37.713 37.712zM24.915 17.372l-7.543 7.543 37.712 37.713 7.543-7.542-37.713-37.713z"></path>
</symbol>
<symbol id="down" viewBox="0 0 80 80">
<title>down</title>
<path class="path1" d="M0.232 15.925q0.51-0.925 1.435-0.925h76.668q0.925 0 1.435 0.925t-0.14 1.76l-38.332 46.667q-0.555 0.648-1.295 0.648-0.925 0-1.295-0.648l-38.333-46.667q-0.647-0.832-0.14-1.76z"></path>
</symbol>
<symbol id="edit" viewBox="0 0 80 80">
<title>edit</title>
<path class="path1" d="M21.962 46.478l29.48-29.175 10.472 10.48-29.285 29.243-10.668 0.087zM70.222 20.612l-5.522 5.55-10.935-10.943 5.52-5.55 2.57 0.022 8.328 8.157zM12 20h-5.333v53.332h53.333v-26.58l-10.667 10.685v5.228h-32v-32h5.332l10.655-10.668h-21.323z"></path>
</symbol>
<symbol id="emphasis" viewBox="0 0 80 80">
<title>emphasis</title>
<path class="path1" d="M78.485 68.8v-3.2h-76.805v3.2h76.805z"></path>
<path class="path2" d="M78.565 14.56v-3.2h-76.805v3.2h76.805z"></path>
<path class="path3" d="M75.218 41.6v-3.2h-29.445v3.2h29.445z"></path>
<path class="path4" d="M65.4 54.24v-3.2h-19.628v3.2h19.628z"></path>
<path class="path5" d="M65.4 28.8v-3.2h-19.628v3.2h19.628z"></path>
<path class="path6" d="M37.92 24.56v-3.2h-31.040v3.2h31.040z"></path>
<path class="path7" d="M20 31.040v-3.2h-13.12v3.2h13.12z"></path>
<path class="path8" d="M17.76 58.875h3.2v-31.035h-3.2v31.035z"></path>
<path class="path9" d="M24.16 58.875h3.2v-31.035h-3.2v31.035z"></path>
<path class="path10" d="M30.572 60.080v-3.2h-16v3.2h16z"></path>
<path class="path11" d="M4.96 18.080h3.2v16h-3.2v-16z"></path>
<path class="path12" d="M36.96 18.080h3.2v16h-3.2v-16z"></path>
<path class="path13" d="M40.16 31.040v-3.2h-16v3.2h16z"></path>
</symbol>
<symbol id="file" viewBox="0 0 43 80">
<title>file</title>
<path class="path1" d="M24.125 30.703c0 1.103 0 1.103 0 5.305 0 3.35 0 3.35 0 7.11 0 7.343 0 7.343 0 11.64 0 2.737-1.972 4.318-4.532 4.318-2.688 0-4.595-1.472-4.547-4.29 0.032-2.028 0.025-7.74-0.015-18.128-0.005-1.47-0.005-1.47-0.012-2.928-0.043-10.49-0.048-11.812-0.048-14.022 0-3.897 3.555-6.665 8.123-6.665 4.52 0 8.26 2.995 8.26 6.953v35.517c0 6.325-5.127 11.45-11.45 11.45s-11.45-5.128-11.45-11.45v-24.808h-3.147v24.808c0 8.063 6.538 14.6 14.6 14.6s14.6-6.537 14.6-14.6v-35.517c0-5.87-5.282-10.1-11.407-10.1-6.158 0-11.27 3.98-11.27 9.812 0 2.218 0.005 3.538 0.047 14.035 0.005 1.457 0.005 1.457 0.013 2.927 0.040 10.347 0.047 16.070 0.015 18.063-0.080 4.795 3.41 7.492 7.698 7.492 4.165 0 7.683-2.815 7.683-7.465 0-4.298 0-4.298 0-11.64 0-3.76 0-3.76 0-7.11 0-4.2 0-4.2 0-5.305h-3.148z"></path>
</symbol>
<symbol id="fmt-bold" viewBox="0 0 80 80">
<title>fmt-bold</title>
<path class="path1" d="M34.553 57.6l-2.84-9.322h-14.277l-2.84 9.322h-8.948l13.822-39.322h10.153l13.875 39.322h-8.948zM29.733 41.315c-2.625-8.447-4.102-13.222-4.432-14.33s-0.568-1.982-0.71-2.625c-0.59 2.285-2.277 7.938-5.063 16.955h10.205zM66.802 57.6l-1.58-4.072h-0.215c-1.375 1.733-2.79 2.932-4.245 3.602s-3.353 1.005-5.693 1.005c-2.875 0-5.137-0.822-6.79-2.465s-2.477-3.983-2.477-7.017c0-3.178 1.112-5.523 3.335-7.032s5.575-2.345 10.057-2.505l5.198-0.16v-1.313c0-3.035-1.553-4.553-4.66-4.553-2.393 0-5.205 0.723-8.438 2.17l-2.705-5.518c3.448-1.802 7.267-2.705 11.465-2.705 4.017 0 7.097 0.875 9.24 2.625s3.215 4.41 3.215 7.983v19.955h-5.705zM64.392 43.725l-3.16 0.108c-2.375 0.072-4.142 0.5-5.302 1.285s-1.74 1.983-1.74 3.59c0 2.302 1.322 3.455 3.965 3.455 1.893 0 3.407-0.545 4.54-1.635s1.7-2.535 1.7-4.34v-2.465z"></path>
</symbol>
<symbol id="fmt-heading" viewBox="0 0 80 80">
<title>fmt-heading</title>
<path class="path1" d="M44.29 57.6h-8.278v-16.902h-15.51v16.902h-8.302v-39.16h8.302v15.348h15.51v-15.348h8.278v39.16zM66.24 57.6h-6.207v-16.995l0.060-2.792 0.1-3.053c-1.032 1.030-1.748 1.707-2.15 2.030l-3.375 2.712-2.992-3.737 9.462-7.533h5.102v29.37z"></path>
</symbol>
<symbol id="fmt-italic" viewBox="0 0 80 80">
<title>fmt-italic</title>
<path class="path1" d="M33.34 45.145h-13.285l-6.563 12.455h-5.062l21.402-39.16h4.66l4.928 39.16h-4.553l-1.527-12.455zM32.858 40.965l-0.938-8.010c-0.427-3.198-0.688-6.323-0.777-9.375-0.66 1.572-1.38 3.135-2.157 4.688s-3.005 5.785-6.683 12.697h10.553zM59.135 27.707c1.643 0 3.107 0.442 4.393 1.325s2.285 2.157 3 3.817h0.295l1.795-4.607h3.403l-6.24 29.357h-3.563l0.697-5.597h-0.215c-3.197 4.090-6.563 6.135-10.097 6.135-2.482 0-4.427-0.885-5.84-2.652s-2.115-4.188-2.115-7.26c0-3.715 0.635-7.16 1.902-10.34s3.017-5.67 5.25-7.473c2.233-1.802 4.678-2.705 7.34-2.705v0zM54.045 54.413c1.733 0 3.455-0.825 5.17-2.477s3.107-3.803 4.177-6.455c1.072-2.653 1.608-5.308 1.608-7.97 0-1.84-0.5-3.303-1.5-4.392s-2.313-1.635-3.938-1.635c-1.858 0-3.585 0.767-5.183 2.302s-2.853 3.615-3.762 6.24c-0.91 2.625-1.365 5.393-1.365 8.303 0 2.035 0.42 3.557 1.26 4.568s2.017 1.513 3.535 1.513v0z"></path>
</symbol>
<symbol id="fmt-link" viewBox="0 0 80 80">
<title>fmt-link</title>
<path class="path1" d="M31.275 54.025l-2.4 2.458c-1.052 1.015-2.322 1.522-3.805 1.522s-2.753-0.508-3.805-1.523c-0.508-0.507-0.898-1.082-1.17-1.727s-0.41-1.338-0.41-2.078c0-0.703 0.137-1.375 0.41-2.020s0.663-1.22 1.17-1.727l8.898-8.84c0.938-0.898 2.165-1.775 3.688-2.635s2.928-0.645 4.215 0.645c0.585 0.547 1.288 0.82 2.108 0.82s1.502-0.293 2.050-0.877c0.585-0.585 0.877-1.288 0.877-2.108s-0.293-1.523-0.877-2.107c-2.148-2.108-4.693-2.985-7.64-2.635s-5.805 1.913-8.575 4.682l-8.955 8.84c-1.052 1.093-1.872 2.322-2.457 3.688s-0.877 2.79-0.877 4.272c0 1.523 0.293 2.965 0.877 4.333s1.405 2.595 2.457 3.688c1.093 1.093 2.343 1.913 3.747 2.457s2.83 0.82 4.273 0.82c1.445 0 2.858-0.273 4.245-0.82s2.625-1.365 3.717-2.457l2.458-2.458c0.585-0.548 0.877-1.23 0.877-2.050s-0.293-1.523-0.877-2.107c-0.585-0.585-1.288-0.877-2.108-0.877s-1.522 0.273-2.107 0.82v0zM58.377 19.608c-2.343-2.303-4.955-3.503-7.845-3.6s-5.405 0.907-7.552 3.015l-3.045 3.045c-0.585 0.547-0.877 1.23-0.877 2.048s0.293 1.523 0.877 2.108c0.585 0.585 1.288 0.877 2.108 0.877s1.523-0.273 2.107-0.82l2.985-3.045c1.133-1.092 2.352-1.502 3.658-1.23s2.43 0.877 3.365 1.815c0.508 0.507 0.897 1.082 1.17 1.728s0.41 1.337 0.41 2.077c0 0.703-0.137 1.375-0.41 2.020s-0.663 1.22-1.17 1.728l-9.482 9.425c-2.185 2.147-3.845 3.035-4.975 2.663s-1.913-0.79-2.343-1.258c-0.585-0.547-1.288-0.82-2.108-0.82s-1.502 0.293-2.047 0.877c-0.585 0.585-0.877 1.288-0.877 2.108s0.292 1.502 0.877 2.050c0.975 1.015 2.030 1.765 3.16 2.252s2.303 0.732 3.512 0.732c1.445 0 2.928-0.36 4.447-1.082s3.025-1.825 4.508-3.308l9.543-9.425c1.052-1.093 1.872-2.322 2.457-3.688s0.877-2.79 0.877-4.272c0-1.523-0.292-2.965-0.877-4.333s-1.405-2.595-2.457-3.687v0z"></path>
</symbol>
<symbol id="fmt-quote" viewBox="0 0 80 80">
<title>fmt-quote</title>
<path class="path1" d="M47.585 53.753l7.41-15.172h-11.29v-22.58h22.58v22.58l-7.41 15.172h-11.29zM17.42 53.753l7.585-15.172h-11.29v-22.58h22.58v22.58l-7.585 15.172h-11.29z"></path>
</symbol>
<symbol id="fmt-quote2" viewBox="0 0 80 80">
<title>fmt-quote2</title>
<path class="path1" d="M47.585 53.753l7.41-15.172h-11.29v-22.58h22.58v22.58l-7.41 15.172h-11.29zM17.42 53.753l7.585-15.172h-11.29v-22.58h22.58v22.58l-7.585 15.172h-11.29z"></path>
</symbol>
<symbol id="fmt-unlink" viewBox="0 0 80 80">
<title>fmt-unlink</title>
<path class="path1" d="M33.56 54.025l-2.4 2.458c-1.052 1.015-2.323 1.522-3.805 1.522s-2.753-0.508-3.805-1.523c-0.508-0.507-0.898-1.082-1.17-1.727s-0.41-1.338-0.41-2.078c0-0.703 0.137-1.375 0.41-2.020s0.663-1.22 1.17-1.727l8.898-8.84c0.938-0.898 2.165-1.775 3.688-2.635s2.927-0.645 4.215 0.645c0.585 0.547 1.288 0.82 2.108 0.82s1.502-0.293 2.050-0.877c0.585-0.585 0.877-1.288 0.877-2.108s-0.292-1.523-0.877-2.107c-2.147-2.108-4.693-2.985-7.64-2.635s-5.805 1.913-8.575 4.682l-8.955 8.84c-1.053 1.093-1.872 2.322-2.457 3.688s-0.878 2.79-0.878 4.272c0 1.523 0.293 2.965 0.878 4.333s1.405 2.595 2.457 3.688c1.092 1.093 2.342 1.913 3.747 2.457s2.83 0.82 4.272 0.82c1.445 0 2.858-0.273 4.245-0.82s2.625-1.365 3.718-2.457l2.458-2.458c0.585-0.548 0.877-1.23 0.877-2.050s-0.293-1.523-0.877-2.107c-0.585-0.585-1.288-0.877-2.108-0.877s-1.523 0.273-2.108 0.82v0 0zM60.663 19.608c-2.343-2.303-4.955-3.503-7.845-3.6s-5.405 0.907-7.55 3.015l-3.045 3.045c-0.585 0.547-0.877 1.23-0.877 2.048s0.292 1.523 0.877 2.108c0.585 0.585 1.287 0.877 2.107 0.877s1.523-0.273 2.108-0.82l2.985-3.045c1.133-1.092 2.352-1.502 3.657-1.23s2.43 0.877 3.365 1.815c0.508 0.507 0.898 1.082 1.17 1.728s0.41 1.337 0.41 2.077c0 0.703-0.138 1.375-0.41 2.020s-0.663 1.22-1.17 1.728l-9.483 9.425c-2.185 2.147-3.845 3.035-4.975 2.663s-1.913-0.79-2.342-1.258c-0.585-0.547-1.288-0.82-2.108-0.82s-1.503 0.293-2.048 0.877c-0.585 0.585-0.877 1.288-0.877 2.108s0.293 1.502 0.877 2.050c0.975 1.015 2.030 1.765 3.16 2.252s2.302 0.732 3.513 0.732c1.445 0 2.927-0.36 4.447-1.082s3.025-1.825 4.508-3.308l9.543-9.425c1.052-1.093 1.872-2.322 2.458-3.688s0.877-2.79 0.877-4.272c0-1.523-0.293-2.965-0.877-4.333s-1.405-2.595-2.458-3.687v0 0z"></path>
<path class="path2" d="M17.143 43.427h49.142v-6.858h-52.572v6.858h3.428z"></path>
</symbol>
<symbol id="game" viewBox="0 0 80 80">
<title>game</title>
<path class="path1" d="M68.325 51.48c-1.81 10.828-11.225 19.080-22.565 19.080-12.638 0-22.88-10.245-22.88-22.88 0-1.365 0.12-2.7 0.347-4h-20.667v-18.88h24.842l3.317 3.317 3.317-3.317h13.323v0.055c9.75 0.673 17.82 7.455 20.407 16.547 1.087-0.877 2.478-1.402 3.993-1.402 3.49 0 6.32 2.792 6.32 6.24s-2.83 6.24-6.32 6.24c-1.265 0-2.445-0.367-3.435-1v0zM68.64 46.24c0-1.67 1.388-3.040 3.12-3.040s3.12 1.37 3.12 3.040c0 1.67-1.388 3.040-3.12 3.040s-3.12-1.37-3.12-3.040zM26.075 28h-20.315v12.48h21.677c-0.878 2.23-1.357 4.657-1.357 7.2 0 10.87 8.81 19.68 19.68 19.68s19.68-8.81 19.68-19.68c0-10.708-8.552-19.42-19.2-19.675v-0.005h-10.875l-4.645 4.645-4.645-4.645z"></path>
</symbol>
<symbol id="heading" viewBox="0 0 80 80">
<title>heading</title>
<path class="path1" d="M31.833 14.48v-3.2h-22.22v3.2h22.22zM15.92 67.123h3.2v-54.403h-3.2v54.403zM22.32 36.865h35.2v-24.305h-3.2v21.105h-28.8v-20.968h-3.2v24.17zM25.52 43.12h28.8v24.305h3.2v-27.505h-35.2v27.35h3.2v-24.15zM60.72 66.64h3.2v-53.92h-3.2v53.92zM31.833 68.72v-3.2h-22.22v3.2h22.22zM70.392 14.48v-3.2h-22.22v3.2h22.22zM70.392 68.72v-3.2h-22.22v3.2h22.22z"></path>
</symbol>
<symbol id="iFrame" viewBox="0 0 80 80">
<title>iFrame</title>
<path class="path1" d="M17.52 39.92c0-3.535 2.865-6.4 6.4-6.4s6.4 2.865 6.4 6.4c0 3.535-2.865 6.4-6.4 6.4s-6.4-2.865-6.4-6.4zM27.12 39.92c0-1.768-1.433-3.2-3.2-3.2s-3.2 1.433-3.2 3.2c0 1.767 1.433 3.2 3.2 3.2s3.2-1.433 3.2-3.2zM33.52 39.92c0-3.535 2.865-6.4 6.4-6.4s6.4 2.865 6.4 6.4c0 3.535-2.865 6.4-6.4 6.4s-6.4-2.865-6.4-6.4zM43.12 39.92c0-1.768-1.433-3.2-3.2-3.2s-3.2 1.433-3.2 3.2c0 1.767 1.432 3.2 3.2 3.2s3.2-1.433 3.2-3.2zM49.52 39.92c0-3.535 2.865-6.4 6.4-6.4s6.4 2.865 6.4 6.4c0 3.535-2.865 6.4-6.4 6.4s-6.4-2.865-6.4-6.4zM59.12 39.92c0-1.768-1.432-3.2-3.2-3.2s-3.2 1.433-3.2 3.2c0 1.767 1.433 3.2 3.2 3.2s3.2-1.433 3.2-3.2zM74.005 40.053l-24.492 24.432 2.255 2.27 26.853-26.703-26.95-26.755-2.255 2.27 24.588 24.485zM2.537 38.92l-1.143 1.135 26.855 26.703 2.258-2.27-24.575-24.432 24.668-24.485-2.255-2.27-25.808 25.62z"></path>
</symbol>
<symbol id="image" viewBox="0 0 80 80">
<title>image</title>
<path class="path1" d="M78.4 11.2v57.6h-76.8v-57.6zM4.8 65.6h70.4v-51.2h-70.4zM46.662 37.207l25.523 25.255h-64.025l0.085-26.833 9.402-8.113 19.267 19.045zM11.37 59.265h53.032l-17.775-17.588-9.745 9.355-19.383-19.16-6.060 5.23zM52.8 28.96c0-4.418 3.582-8 8-8s8 3.582 8 8c0 4.417-3.582 8-8 8s-8-3.582-8-8zM65.6 28.96c0-2.65-2.15-4.8-4.8-4.8s-4.8 2.15-4.8 4.8c0 2.65 2.15 4.8 4.8 4.8s4.8-2.15 4.8-4.8z"></path>
</symbol>
<symbol id="instagram" viewBox="0 0 80 80">
<title>instagram</title>
<path class="path1" d="M52.64 27.68h9.92v-9.92h-9.92v9.92zM59.36 20.96v3.52h-3.52v-3.52h3.52z"></path>
<path class="path2" d="M14.4 38.4v-24h51.2v24.16h-11.29c-0.795-7.113-6.828-12.64-14.15-12.64-7.267 0-13.265 5.445-14.133 12.48h-11.627zM14.4 41.6v24h51.2v-23.84h-11.29c-0.795 7.112-6.828 12.64-14.15 12.64-7.378 0-13.445-5.613-14.168-12.8h-11.592zM11.2 68.8h57.6v-57.6h-57.6v57.6zM29.12 40.16c0-6.097 4.943-11.040 11.040-11.040s11.040 4.943 11.040 11.040c0 6.098-4.943 11.040-11.040 11.040s-11.040-4.943-11.040-11.040z"></path>
</symbol>
<symbol id="left-align" viewBox="0 0 90 80">
<title>left-align</title>
<path class="path1" d="M0 0v8.89h88.89v-8.89h-88.89z"></path>
<path class="path2" d="M0 35.555v8.89h88.89v-8.89h-88.89z"></path>
<path class="path3" d="M0 71.11v8.89h88.89v-8.89h-88.89z"></path>
<path class="path4" d="M0 17.777v8.89h53.332v-8.89h-53.332z"></path>
<path class="path5" d="M0 53.332v8.89h53.332v-8.89h-53.332z"></path>
</symbol>
<symbol id="link" viewBox="0 0 80 80">
<title>link</title>
<path class="path1" d="M74.485 5.833l-0.315-0.315c-7.355-7.355-19.39-7.355-26.745 0l-17.040 17.043c-7.355 7.355-7.355 19.39 0 26.742l0.315 0.315c0.612 0.612 1.262 1.165 1.933 1.677l6.237-6.238c-0.727-0.43-1.415-0.942-2.040-1.567l-0.315-0.315c-3.992-3.992-3.992-10.49 0-14.482l17.040-17.040c3.993-3.993 10.49-3.993 14.483 0l0.315 0.315c3.993 3.992 3.993 10.493 0 14.483l-7.71 7.71c1.337 3.305 1.972 6.828 1.917 10.343l11.923-11.922c7.355-7.355 7.355-19.39 0-26.742zM49.3 30.385c-0.613-0.612-1.262-1.165-1.932-1.675l-6.238 6.237c0.727 0.43 1.415 0.943 2.040 1.568l0.315 0.315c3.992 3.993 3.992 10.49 0 14.483l-17.043 17.042c-3.992 3.993-10.49 3.993-14.482 0l-0.315-0.315c-3.992-3.995-3.992-10.49 0-14.482l7.71-7.71c-1.338-3.305-1.973-6.828-1.918-10.343l-11.923 11.922c-7.355 7.355-7.355 19.39 0 26.745l0.315 0.315c7.355 7.355 19.39 7.355 26.745 0l17.040-17.040c7.355-7.355 7.355-19.39 0-26.745l-0.315-0.315z"></path>
</symbol>
<symbol id="list" viewBox="0 0 80 80">
<title>list</title>
<path class="path1" d="M11.2 19.2v9.6h-9.6v-9.6zM4.8 22.4v3.2h3.2v-3.2zM11.2 35.2v9.6h-9.6v-9.6zM4.8 38.4v3.2h3.2v-3.2zM11.2 51.2v9.6h-9.6v-9.6zM4.8 57.6h3.2v-3.2h-3.2zM65.6 19.2v9.6h-48v-9.6zM20.8 25.6h41.6v-3.2h-41.6zM78.4 35.2v9.6h-60.8v-9.6zM20.8 38.4v3.2h54.4v-3.2zM56 51.2v9.6h-38.4v-9.6zM20.8 54.4v3.2h32v-3.2z"></path>
</symbol>
<symbol id="middle" viewBox="0 0 63 80">
<title>middle</title>
<path class="path1" d="M0 36.922v6.155h61.537v-6.155h-61.537z"></path>
<path class="path2" d="M27.692 0v80h6.155v-80h-6.155z"></path>
<path class="path3" d="M30.77 40l18.462-18.462h-36.922z"></path>
<path class="path4" d="M30.77 40l18.462 18.462h-36.922z"></path>
</symbol>
<symbol id="minus" viewBox="0 0 90 80">
<title>minus</title>
<path class="path1" d="M0 31.11v17.777h88.89v-17.778h-88.89z"></path>
</symbol>
<symbol id="move-up-down" viewBox="0 0 80 80">
<title>move-up-down</title>
<path class="path1" d="M0 47.752l21.782-21.785 21.782 21.785-6.278 6.277-15.505-15.51-15.505 15.51-6.277-6.277zM36.428 32.25l6.28-6.282 15.502 15.508 15.508-15.508 6.285 6.282-21.79 21.778-21.785-21.778z"></path>
</symbol>
<symbol id="next" viewBox="0 0 53 80">
<title>next</title>
<path class="path1" d="M14.857 2.29l-12.57 12.57 25.137 25.143-25.137 25.142 12.57 12.57 37.71-37.71-37.71-37.71z"></path>
</symbol>
<symbol id="ordered-list" viewBox="0 0 80 80">
<title>ordered-list</title>
<path class="path1" d="M64.86 19.353v9.6h-48v-9.6zM20.060 25.753h41.6v-3.2h-41.6zM77.66 35.353v9.6h-60.8v-9.6zM20.060 38.553v3.2h54.4v-3.2zM55.26 51.353v9.6h-38.4v-9.6zM20.060 54.553v3.2h32v-3.2z"></path>
<path class="path2" d="M9.354 28.475h-2.64v-7.229c0-0.148 0-0.325 0-0.53 0.006-0.211 0.011-0.427 0.017-0.649 0.011-0.228 0.020-0.456 0.026-0.684 0.011-0.228 0.020-0.436 0.026-0.624-0.029 0.034-0.077 0.085-0.145 0.154s-0.145 0.145-0.231 0.231c-0.085 0.080-0.174 0.162-0.265 0.248s-0.179 0.162-0.265 0.231l-1.436 1.154-1.282-1.589 4.025-3.204h2.17v12.493z"></path>
<path class="path3" d="M11.424 44.746h-8.383v-1.837l2.939-3.17c0.37-0.399 0.706-0.766 1.008-1.102s0.561-0.664 0.778-0.983c0.216-0.319 0.385-0.644 0.504-0.974s0.179-0.686 0.179-1.068c0-0.422-0.128-0.749-0.385-0.983-0.251-0.234-0.59-0.35-1.017-0.35-0.45 0-0.883 0.111-1.299 0.333s-0.852 0.538-1.307 0.949l-1.436-1.7c0.256-0.234 0.524-0.456 0.803-0.666 0.279-0.216 0.587-0.407 0.923-0.572s0.706-0.296 1.111-0.393c0.404-0.102 0.857-0.154 1.359-0.154 0.598 0 1.134 0.083 1.606 0.248 0.479 0.165 0.886 0.402 1.222 0.709 0.336 0.302 0.592 0.669 0.769 1.102 0.182 0.433 0.273 0.92 0.273 1.461 0 0.49-0.085 0.96-0.256 1.41-0.171 0.444-0.404 0.883-0.701 1.316-0.296 0.427-0.641 0.855-1.034 1.282-0.387 0.422-0.803 0.852-1.248 1.29l-1.504 1.512v0.12h5.093v2.222z"></path>
<path class="path4" d="M11.276 50.979c0 0.433-0.071 0.823-0.214 1.171-0.137 0.342-0.328 0.644-0.572 0.906-0.239 0.256-0.524 0.473-0.854 0.649-0.325 0.171-0.678 0.302-1.060 0.393v0.051c1.008 0.125 1.772 0.433 2.29 0.923 0.518 0.484 0.778 1.139 0.778 1.965 0 0.547-0.1 1.054-0.299 1.521-0.194 0.461-0.496 0.863-0.906 1.205-0.404 0.342-0.917 0.61-1.538 0.803-0.615 0.188-1.342 0.282-2.179 0.282-0.672 0-1.305-0.057-1.897-0.171-0.592-0.108-1.145-0.276-1.658-0.504v-2.247c0.256 0.137 0.527 0.256 0.812 0.359s0.57 0.191 0.855 0.265c0.285 0.068 0.564 0.12 0.837 0.154 0.279 0.034 0.541 0.051 0.786 0.051 0.49 0 0.897-0.046 1.222-0.137s0.584-0.219 0.778-0.385c0.194-0.165 0.33-0.362 0.41-0.59 0.085-0.234 0.128-0.487 0.128-0.76 0-0.256-0.054-0.487-0.162-0.692-0.103-0.211-0.273-0.387-0.513-0.53-0.234-0.148-0.541-0.262-0.923-0.342s-0.852-0.12-1.41-0.12h-0.889v-1.854h0.872c0.524 0 0.96-0.046 1.307-0.137 0.348-0.097 0.624-0.225 0.829-0.385 0.211-0.165 0.359-0.356 0.444-0.572s0.128-0.447 0.128-0.692c0-0.444-0.14-0.792-0.419-1.043-0.273-0.251-0.709-0.376-1.307-0.376-0.273 0-0.53 0.029-0.769 0.085-0.234 0.051-0.453 0.12-0.658 0.205-0.199 0.080-0.385 0.171-0.555 0.273-0.165 0.097-0.316 0.194-0.453 0.291l-1.333-1.76c0.239-0.177 0.498-0.339 0.778-0.487 0.285-0.148 0.592-0.276 0.923-0.385 0.33-0.114 0.686-0.202 1.068-0.265s0.789-0.094 1.222-0.094c0.615 0 1.174 0.068 1.675 0.205 0.507 0.131 0.94 0.325 1.299 0.581 0.359 0.251 0.635 0.561 0.829 0.931 0.199 0.365 0.299 0.783 0.299 1.256z"></path>
</symbol>
<symbol id="plus" viewBox="0 0 80 80">
<title>plus</title>
<path class="path1" d="M32 80h16v-80h-16v80z"></path>
<path class="path2" d="M0 32v16h80v-16h-80z"></path>
</symbol>
<symbol id="publish" viewBox="0 0 80 80">
<title>publish</title>
<path class="path1" d="M69.332 45.332l-21.332 21.332v-16h-26.668v-10.667h26.668v-16zM35.99 23.995l-0.005-3.995h-34.653v50.668h34.668v-14.623h-8l0.072 6.608-18.253-0.028-0.397-34.47 18.57-0.16 0.008 6.805 8-0.008-0.010-10.797z"></path>
</symbol>
<symbol id="quote" viewBox="0 0 80 80">
<title>quote</title>
<path class="path1" d="M7.925 35.285l19.36-19.283 12.68 0.030-19.238 19.17h16v28.8h-28.8zM11.125 36.557v24.242h22.4v-22.4h-20.545l19.255-19.188-3.635-0.008zM39.925 35.285l19.36-19.283 12.68 0.030-19.237 19.17h16v28.8h-28.8zM43.125 36.557v24.242h22.4v-22.4h-20.545l19.255-19.188-3.635-0.008z"></path>
</symbol>
<symbol id="republish" viewBox="0 0 80 80">
<title>republish</title>
<path class="path1" d="M69.332 45.332l-21.332 21.332v-16h-26.668v-10.667h26.668v-16l16 16zM80 45.332l-21.333 21.332h-5.332l21.332-21.333-21.332-21.332h5.332zM35.99 23.995l-0.005-3.995h-34.653v50.668h34.668v-14.623h-8l0.072 6.608-18.253-0.028-0.397-34.47 18.57-0.16 0.008 6.805 8-0.008-0.010-10.797z"></path>
</symbol>
<symbol id="right-align" viewBox="0 0 90 80">
<title>right-align</title>
<path class="path1" d="M88.89 0v8.89h-88.89v-8.89h88.89z"></path>
<path class="path2" d="M88.89 35.555v8.89h-88.89v-8.89h88.89z"></path>
<path class="path3" d="M88.89 71.11v8.89h-88.89v-8.89h88.89z"></path>
<path class="path4" d="M88.89 17.777v8.89h-53.332v-8.89h53.332z"></path>
<path class="path5" d="M88.89 53.332v8.89h-53.332v-8.89h53.332z"></path>
</symbol>
<symbol id="rotate" viewBox="0 0 58 80">
<title>rotate</title>
<path class="path1" d="M2.857 22.858l22.858-22.858v45.715z"></path>
<path class="path2" d="M25.715 17.143c17.357 0 31.427 14.070 31.427 31.427s-14.070 31.428-31.427 31.428c-9.115 0-17.325-3.88-23.065-10.080l8.388-7.763c3.652 3.945 8.878 6.415 14.678 6.415 11.045 0 20-8.955 20-20s-8.955-20-20-20v-11.427z"></path>
</symbol>
<symbol id="search" viewBox="0 0 80 80">
<title>search</title>
<path class="path1" d="M0 73.332q0-2.778 1.945-4.722l22.685-22.593q-4.63-7.222-4.63-16.017 0-12.408 8.795-21.205t21.205-8.795 21.205 8.795 8.795 21.205-8.795 21.205-21.205 8.795q-8.795 0-16.017-4.63l-22.593 22.685q-1.945 1.945-4.723 1.945t-4.723-1.945-1.945-4.722zM30 30q0 8.24 5.88 14.12t14.12 5.88 14.12-5.88 5.88-14.12-5.88-14.12-14.12-5.88-14.12 5.88-5.88 14.12z"></path>
</symbol>
<symbol id="small-tick" viewBox="0 0 80 80">
<title>small-tick</title>
<path class="path1" d="M29.313 50.055l-12.168-12.897-7.543 7.542 19.648 19.648 41.147-41.148-7.542-7.543-33.542 34.4z"></path>
</symbol>
<symbol id="table" viewBox="0 0 110 80">
<title>table</title>
<path class="path1" d="M106.71 0v80h-106.71v-80h106.71zM4.445 75.555h97.817v-71.11h-97.818v71.11z"></path>
<path class="path2" d="M102.265 80h4.448v-53.332h-106.71v53.332h4.445v-48.89h97.817v48.89z"></path>
<path class="path3" d="M106.71 4.445v-4.445h-80.045v80h80.045v-4.445h-75.597v-71.11h75.597z"></path>
</symbol>
<symbol id="tick" viewBox="0 0 95 80">
<title>tick</title>
<path class="path1" d="M31.97 55.083l-18.252-19.35-11.313 11.313 29.47 29.47 61.722-61.722-11.313-11.313-50.312 51.6z"></path>
</symbol>
<symbol id="top" viewBox="0 0 73 80">
<title>top</title>
<path class="path1" d="M0 0v7.272h72.728v-7.272h-72.728z"></path>
<path class="path2" d="M32.727 7.272v72.728h7.273v-72.728h-7.272z"></path>
<path class="path3" d="M36.362 3.638l21.817 21.818h-43.637z"></path>
</symbol>
<symbol id="user" viewBox="0 0 80 80">
<title>user</title>
<path class="path1" d="M66.668 66.668c-19.123 0.155-38.18 0.155-53.332 0 0-9.030 9.162-16.563 21.332-18.293v-4.467c-3.188-1.845-5.332-5.293-5.332-9.24 0-0.235 0.008-0.47 0.023-0.7-1.608-0.92-2.69-2.65-2.69-4.633s1.082-3.715 2.69-4.633c-0.015-0.23-0.023-0.465-0.023-0.7 0-5.89 4.775-10.668 10.668-10.668s10.667 4.775 10.667 10.668c0 0.235-0.008 0.47-0.023 0.7 1.605 0.92 2.69 2.65 2.69 4.633s-1.083 3.715-2.69 4.633c0.015 0.23 0.023 0.465 0.023 0.7 0 3.948-2.145 7.395-5.332 9.24v4.467c12.172 1.73 21.332 9.263 21.332 18.293z"></path>
</symbol>
<symbol id="video" viewBox="0 0 80 80">
<title>video</title>
<path class="path1" d="M78.4 11.2v57.6h-76.8v-57.6zM4.8 65.6h70.4v-51.2h-70.4zM20.8 40.16c0-10.605 8.595-19.2 19.2-19.2s19.2 8.595 19.2 19.2c0 10.605-8.595 19.2-19.2 19.2s-19.2-8.595-19.2-19.2zM56 40.16c0-8.837-7.163-16-16-16s-16 7.162-16 16c0 8.838 7.163 16 16 16s16-7.163 16-16zM33.6 30.56l16 9.52-16 9.52zM43.343 40.080l-6.543-3.892v7.785z"></path>
</symbol>
<symbol id="view" viewBox="0 0 80 80">
<title>view</title>
<path class="path1" d="M40 61.333c-18.667 0-34.668-21.333-34.668-21.333s16-21.332 34.668-21.332c18.667 0 34.668 21.332 34.668 21.332s-16 21.333-34.668 21.333zM40 50.667c5.89 0 10.667-4.775 10.667-10.667s-4.775-10.667-10.667-10.667c-5.89 0-10.667 4.775-10.667 10.667s4.775 10.667 10.667 10.667z"></path>
</symbol>
</defs>
</svg>
