<?xml version="1.0" encoding="UTF-8" standalone="no"?>
<svg width="55px" height="55px" viewBox="0 0 55 55" version="1.1" xmlns="http://www.w3.org/2000/svg" xmlns:xlink="http://www.w3.org/1999/xlink" xmlns:sketch="http://www.bohemiancoding.com/sketch/ns">
    <!-- Generator: Sketch 3.4.3 (16044) - http://www.bohemiancoding.com/sketch -->
    <title>Oval 1 + EYE Copy</title>
    <desc>Created with Sketch.</desc>
    <defs></defs>
    <g id="Page-1" stroke="none" stroke-width="1" fill="none" fill-rule="evenodd" sketch:type="MSPage">
        <g id="Main-view" sketch:type="MSArtboardGroup" transform="translate(-113.000000, -171.000000)" fill="#17BB75">
            <g id="Oval-1-+-EYE-Copy" sketch:type="MSLayerGroup" transform="translate(140.500000, 198.500000) rotate(-270.000000) translate(-140.500000, -198.500000) translate(113.000000, 171.000000)">
                <path d="M27.5,55 C42.6878306,55 55,42.6878306 55,27.5 C55,12.3121694 42.6878306,-2.84217094e-14 27.5,-2.84217094e-14 C12.3121694,-2.84217094e-14 0,12.3121694 0,27.5 C0,42.6878306 12.3121694,55 27.5,55 L27.5,55 Z M27.5,53 C13.4167389,53 2,41.5832611 2,27.5 C2,13.4167389 13.4167389,2 27.5,2 C41.5832611,2 53,13.4167389 53,27.5 C53,41.5832611 41.5832611,53 27.5,53 L27.5,53 Z" id="Shape" sketch:type="MSShapeGroup"></path>
                <path d="M40.5,27.4999973 C40.5,28.0928366 40.4364807,28.6009745 40.3094476,29.0244273 C40.1824091,29.4478854 39.8083614,29.6596091 39.1872991,29.6596091 L29.6596091,29.6596091 L29.6596091,39.2296417 C29.6596091,39.8224783 29.4478854,40.1824098 29.0244327,40.3094463 C28.6009745,40.4364827 28.0928366,40.5 27.5000027,40.5 C26.9071634,40.5 26.3990255,40.4364827 25.9755727,40.3094463 C25.5521146,40.1824098 25.3403909,39.8224783 25.3403909,39.2296417 L25.3403909,29.6596091 L15.8127036,29.6596091 C15.1916365,29.6596091 14.8175902,29.4478854 14.6905537,29.0244273 C14.5635173,28.6009745 14.5,28.0928366 14.5,27.4999973 C14.5,26.9071634 14.5635173,26.3990255 14.6905537,25.9755673 C14.8175902,25.5521146 15.1916365,25.3403909 15.8127036,25.3403909 L25.3403909,25.3403909 L25.3403909,15.8127009 C25.3403909,15.219867 25.5521146,14.8528764 25.9755727,14.7117291 C26.3990255,14.5705764 26.9071634,14.5 27.5000027,14.5 C28.0928366,14.5 28.6009745,14.5705764 29.0244327,14.7117291 C29.4478854,14.8528764 29.6596091,15.219867 29.6596091,15.8127009 L29.6596091,25.3403909 L39.1872991,25.3403909 C39.8083614,25.3403909 40.1824091,25.5521146 40.3094476,25.9755673 C40.4364807,26.3990255 40.5,26.9071634 40.5,27.4999973 L40.5,27.4999973 Z" id="Page-1" sketch:type="MSShapeGroup"></path>
            </g>
        </g>
    </g>
</svg>