<?xml version="1.0" encoding="UTF-8" standalone="no"?>
<svg width="500px" height="500px" viewBox="0 0 500 500" version="1.1" xmlns="http://www.w3.org/2000/svg" xmlns:xlink="http://www.w3.org/1999/xlink" xmlns:sketch="http://www.bohemiancoding.com/sketch/ns">
    <!-- Generator: Sketch 3.5.1 (25234) - http://www.bohemiancoding.com/sketch -->
    <title>Code</title>
    <desc>Created with Sketch.</desc>
    <defs></defs>
    <g id="Page-1" stroke="none" stroke-width="1" fill="none" fill-rule="evenodd" sketch:type="MSPage">
        <g id="Code" sketch:type="MSArtboardGroup" fill="#000000">
            <path d="M375.936842,166.109104 L467.236845,257.205179 L467.23116,243.052917 L376.270015,333.956842 L390.407701,348.103427 L481.368846,257.199502 L488.452279,250.120524 L481.363161,243.04724 L390.063158,151.951165 L375.936842,166.109104 L375.936842,166.109104 Z" id="Shape" sketch:type="MSShapeGroup"></path>
            <path d="M109.236845,151.951165 L17.9368424,243.04724 L10.8477241,250.120524 L17.9311573,257.199502 L108.892302,348.103427 L123.029988,333.956842 L32.0688427,243.052917 L32.0631576,257.205179 L123.363161,166.109104 L109.236845,151.951165 L109.236845,151.951165 Z" id="Shape" sketch:type="MSShapeGroup"></path>
            <path d="M192.451036,397.037232 L319.759599,111.097501 L323.826965,101.962046 L305.556056,93.8273136 L301.48869,102.962768 L174.180127,388.902499 L170.11276,398.037954 L188.38367,406.172686 L192.451036,397.037232 L192.451036,397.037232 Z" id="Shape" sketch:type="MSShapeGroup"></path>
        </g>
    </g>
</svg>