<?xml version="1.0" encoding="utf-8"?>
<!-- Generated by IcoMoon.io -->
<!DOCTYPE svg PUBLIC "-//W3C//DTD SVG 1.1//EN" "http://www.w3.org/Graphics/SVG/1.1/DTD/svg11.dtd">
<svg version="1.1" xmlns="http://www.w3.org/2000/svg" xmlns:xlink="http://www.w3.org/1999/xlink" width="32" height="32" viewBox="0 0 32 32">
<path fill="#444" d="M7.040 11.488h22.016v-3.84h-22.016v3.84zM27.794 8.934l0.026 1.239-19.527 0.015 0.001-1.284 19.5 0.030zM0.64 17.888h30.72v-3.84h-30.72v3.84zM1.892 15.412l28.146-0.094-0.003 1.306-28.13-0.002-0.013-1.21zM0.704 24.288h20.544v-3.84h-20.544v3.84zM19.967 21.769l0.002 1.286-18.013-0.005 0.024-1.318 17.987 0.037zM27.015 22.822l0.451-0.452-3.261-3.27-0.906 0.904 2.375 2.343-2.385 2.395 0.906 0.905 2.821-2.824zM1.136 9.178l-0.451 0.452 3.261 3.27 0.906-0.904-2.416-2.363 2.426-2.374-0.906-0.905-2.821 2.824z"></path>
</svg>
