<?xml version="1.0" encoding="utf-8"?>
<!-- Generated by IcoMoon.io -->
<!DOCTYPE svg PUBLIC "-//W3C//DTD SVG 1.1//EN" "http://www.w3.org/Graphics/SVG/1.1/DTD/svg11.dtd">
<svg version="1.1" xmlns="http://www.w3.org/2000/svg" xmlns:xlink="http://www.w3.org/1999/xlink" width="32" height="32" viewBox="0 0 32 32">
<path fill="#444" d="M31.394 27.52v-1.28h-30.722v1.28h30.722z"></path>
<path fill="#444" d="M31.426 5.824v-1.28h-30.722v1.28h30.722z"></path>
<path fill="#444" d="M30.087 16.64v-1.28h-11.778v1.28h11.778z"></path>
<path fill="#444" d="M26.16 21.696v-1.28h-7.851v1.28h7.851z"></path>
<path fill="#444" d="M26.16 11.52v-1.28h-7.851v1.28h7.851z"></path>
<path fill="#444" d="M15.168 9.824v-1.28h-12.416v1.28h12.416z"></path>
<path fill="#444" d="M8 12.416v-1.28h-5.248v1.28h5.248z"></path>
<path fill="#444" d="M7.104 23.55h1.28v-12.414h-1.28v12.414z"></path>
<path fill="#444" d="M9.664 23.55h1.28v-12.414h-1.28v12.414z"></path>
<path fill="#444" d="M12.229 24.032v-1.28h-6.4v1.28h6.4z"></path>
<path fill="#444" d="M1.984 7.232h1.28v6.4h-1.28v-6.4z"></path>
<path fill="#444" d="M14.784 7.232h1.28v6.4h-1.28v-6.4z"></path>
<path fill="#444" d="M16.064 12.416v-1.28h-6.4v1.28h6.4z"></path>
</svg>
