<?xml version="1.0" encoding="utf-8"?>
<!-- Generated by IcoMoon.io -->
<!DOCTYPE svg PUBLIC "-//W3C//DTD SVG 1.1//EN" "http://www.w3.org/Graphics/SVG/1.1/DTD/svg11.dtd">
<svg version="1.1" xmlns="http://www.w3.org/2000/svg" xmlns:xlink="http://www.w3.org/1999/xlink" width="17" height="32" viewBox="0 0 17 32">
<path fill="#444" d="M9.65 12.281c0 0.441 0 0.441 0 2.122 0 1.34 0 1.34 0 2.844 0 2.937 0 2.937 0 4.656 0 1.095-0.789 1.727-1.813 1.727-1.075 0-1.838-0.589-1.819-1.716 0.013-0.811 0.010-3.096-0.006-7.251-0.002-0.588-0.002-0.588-0.005-1.171-0.017-4.196-0.019-4.725-0.019-5.609 0-1.559 1.422-2.666 3.249-2.666 1.808 0 3.304 1.198 3.304 2.781v14.207c0 2.53-2.051 4.58-4.58 4.58s-4.58-2.051-4.58-4.58v-9.923h-1.259v9.923c0 3.225 2.615 5.84 5.84 5.84s5.84-2.615 5.84-5.84v-14.207c0-2.348-2.113-4.040-4.563-4.040-2.463 0-4.508 1.592-4.508 3.925 0 0.887 0.002 1.415 0.019 5.614 0.002 0.583 0.002 0.583 0.005 1.171 0.016 4.139 0.019 6.428 0.006 7.225-0.032 1.918 1.364 2.997 3.079 2.997 1.666 0 3.073-1.126 3.073-2.986 0-1.719 0-1.719 0-4.656 0-1.504 0-1.504 0-2.844 0-1.68 0-1.68 0-2.122h-1.259z"></path>
</svg>
