<?xml version="1.0" encoding="UTF-8" standalone="no"?>
<svg width="35px" height="35px" viewBox="0 0 35 35" version="1.1" xmlns="http://www.w3.org/2000/svg" xmlns:xlink="http://www.w3.org/1999/xlink" xmlns:sketch="http://www.bohemiancoding.com/sketch/ns">
    <!-- Generator: Sketch 3.4.3 (16044) - http://www.bohemiancoding.com/sketch -->
    <title>H1</title>
    <desc>Created with Sketch.</desc>
    <defs></defs>
    <g id="Page-1" stroke="none" stroke-width="1" fill="none" fill-rule="evenodd" sketch:type="MSPage">
        <g id="Text-Blocks" sketch:type="MSArtboardGroup" transform="translate(-674.000000, -184.000000)" fill="#000000">
            <g id="Group-Copy-2" sketch:type="MSLayerGroup" transform="translate(587.000000, 169.000000)">
                <path d="M101.585938,34.7507812 L95.7734375,34.7507812 L92.9023438,40.2 L90.6875,40.2 L100.050781,23.0671875 L102.089844,23.0671875 L104.246094,40.2 L102.253906,40.2 L101.585938,34.7507812 Z M101.375,32.9226562 L100.964844,29.41875 C100.777343,28.0203055 100.664063,26.6531317 100.625,25.3171875 C100.335936,26.0046909 100.021486,26.6882779 99.6816406,27.3679687 C99.3417952,28.0476596 98.3671955,29.8992036 96.7578125,32.9226562 L101.375,32.9226562 Z M112.871094,27.121875 C113.589847,27.121875 114.230466,27.3152324 114.792969,27.7019531 C115.355472,28.0886738 115.792967,28.6453089 116.105469,29.371875 L116.234375,29.371875 L117.019531,27.35625 L118.507812,27.35625 L115.777344,40.2 L114.21875,40.2 L114.523438,37.7507812 L114.429688,37.7507812 C113.031243,39.5398527 111.558601,40.434375 110.011719,40.434375 C108.925776,40.434375 108.074222,40.0476601 107.457031,39.2742187 C106.839841,38.5007774 106.53125,37.4421942 106.53125,36.0984375 C106.53125,34.4734294 106.808591,32.965632 107.363281,31.575 C107.917972,30.184368 108.683589,29.0945352 109.660156,28.3054687 C110.636724,27.5164023 111.707025,27.121875 112.871094,27.121875 L112.871094,27.121875 Z M110.644531,38.8054687 C111.402348,38.8054687 112.156246,38.4441442 112.90625,37.7214844 C113.656254,36.9988245 114.265623,36.0574277 114.734375,34.8972656 C115.203127,33.7371036 115.4375,32.5750058 115.4375,31.4109375 C115.4375,30.606246 115.218752,29.9656274 114.78125,29.4890625 C114.343748,29.0124976 113.769535,28.7742187 113.058594,28.7742187 C112.24609,28.7742187 111.490238,29.1101529 110.791016,29.7820312 C110.091793,30.4539096 109.542971,31.3640568 109.144531,32.5125 C108.746092,33.6609432 108.546875,34.8718686 108.546875,36.1453125 C108.546875,37.035942 108.730467,37.7019509 109.097656,38.1433594 C109.464846,38.5847678 109.980465,38.8054687 110.644531,38.8054687 L110.644531,38.8054687 Z" id="Aa" sketch:type="MSShapeGroup"></path>
            </g>
        </g>
    </g>
</svg>