<?xml version="1.0" encoding="utf-8"?>
<!-- Generated by IcoMoon.io -->
<!DOCTYPE svg PUBLIC "-//W3C//DTD SVG 1.1//EN" "http://www.w3.org/Graphics/SVG/1.1/DTD/svg11.dtd">
<svg version="1.1" xmlns="http://www.w3.org/2000/svg" xmlns:xlink="http://www.w3.org/1999/xlink" width="32" height="32" viewBox="0 0 32 32">
<path fill="#444" d="M17.716 23.040h-3.311v-6.761h-6.204v6.761h-3.321v-15.664h3.321v6.139h6.204v-6.139h3.311v15.664z"></path>
<g transform="translate(21,11)">
    <path fill="#444" d="M 6.383 0 L 6.807 0 L 6.807 2.2 L 6.682 2.2 A 5.375 5.375 0 0 0 5.553 2.312 Q 4.723 2.49 4.105 2.951 Q 3.096 3.702 2.864 5.039 A 3.21 3.21 0 0 1 4.977 4.118 A 4.272 4.272 0 0 1 5.255 4.109 A 3.469 3.469 0 0 1 6.424 4.298 A 2.976 2.976 0 0 1 7.753 5.254 Q 8.656 6.367 8.682 8.154 A 7.314 7.314 0 0 1 8.683 8.259 A 4.231 4.231 0 0 1 8.139 10.376 Q 7.595 11.339 6.62 11.883 A 4.34 4.34 0 0 1 4.568 12.425 A 5.119 5.119 0 0 1 4.458 12.426 A 4.838 4.838 0 0 1 3.062 12.231 A 4.223 4.223 0 0 1 2.158 11.841 Q 1.146 11.256 0.581 10.168 Q 0.017 9.081 0 7.662 L 0 6.541 A 7.479 7.479 0 0 1 0.275 4.482 A 6.494 6.494 0 0 1 0.801 3.183 A 5.807 5.807 0 0 1 3.088 0.847 A 6.514 6.514 0 0 1 6.271 0.001 A 7.671 7.671 0 0 1 6.383 0 Z M 2.798 7.139 L 2.798 7.977 A 4.901 4.901 0 0 0 2.858 8.785 Q 3.107 10.268 4.383 10.268 A 1.241 1.241 0 0 0 5.325 9.845 A 1.813 1.813 0 0 0 5.45 9.695 A 2.107 2.107 0 0 0 5.824 8.83 A 2.946 2.946 0 0 0 5.877 8.259 A 2.968 2.968 0 0 0 5.816 7.639 Q 5.725 7.213 5.499 6.889 A 1.848 1.848 0 0 0 5.441 6.811 A 1.378 1.378 0 0 0 4.441 6.257 A 1.747 1.747 0 0 0 4.283 6.25 A 1.988 1.988 0 0 0 3.862 6.293 A 1.413 1.413 0 0 0 3.354 6.508 A 1.731 1.731 0 0 0 2.969 6.865 A 1.539 1.539 0 0 0 2.798 7.139 Z"></path>
</g>
</svg>
