<?xml version="1.0" encoding="utf-8"?>
<!-- Generated by IcoMoon.io -->
<!DOCTYPE svg PUBLIC "-//W3C//DTD SVG 1.1//EN" "http://www.w3.org/Graphics/SVG/1.1/DTD/svg11.dtd">
<svg version="1.1" xmlns="http://www.w3.org/2000/svg" xmlns:xlink="http://www.w3.org/1999/xlink" width="32" height="32" viewBox="0 0 32 32">
<path fill="#444" d="M13.821 23.040l-1.136-3.729h-5.711l-1.136 3.729h-3.579l5.529-15.729h4.061l5.55 15.729h-3.579zM11.893 16.526c-1.050-3.379-1.641-5.289-1.773-5.732s-0.227-0.793-0.284-1.050c-0.236 0.914-0.911 3.175-2.025 6.782h4.082zM26.721 23.040l-0.632-1.629h-0.086c-0.55 0.693-1.116 1.173-1.698 1.441s-1.341 0.402-2.277 0.402c-1.15 0-2.055-0.329-2.716-0.986s-0.991-1.593-0.991-2.807c0-1.271 0.445-2.209 1.334-2.813s2.23-0.938 4.023-1.002l2.079-0.064v-0.525c0-1.214-0.621-1.821-1.864-1.821-0.957 0-2.082 0.289-3.375 0.868l-1.082-2.207c1.379-0.721 2.907-1.082 4.586-1.082 1.607 0 2.839 0.35 3.696 1.050s1.286 1.764 1.286 3.193v7.982h-2.282zM25.757 17.49l-1.264 0.043c-0.95 0.029-1.657 0.2-2.121 0.514s-0.696 0.793-0.696 1.436c0 0.921 0.529 1.382 1.586 1.382 0.757 0 1.363-0.218 1.816-0.654s0.68-1.014 0.68-1.736v-0.986z"></path>
</svg>
