<?xml version="1.0" encoding="utf-8"?>
<!-- Generated by IcoMoon.io -->
<!DOCTYPE svg PUBLIC "-//W3C//DTD SVG 1.1//EN" "http://www.w3.org/Graphics/SVG/1.1/DTD/svg11.dtd">
<svg version="1.1" xmlns="http://www.w3.org/2000/svg" xmlns:xlink="http://www.w3.org/1999/xlink" width="32" height="32" viewBox="0 0 32 32">
<path fill="#444" d="M17.716 23.040h-3.311v-6.761h-6.204v6.761h-3.321v-15.664h3.321v6.139h6.204v-6.139h3.311v15.664z"></path>
<g transform="translate(21,11)">
    <path fill="#444" d="M 8.683 10.102 L 8.683 12.26 L 0.249 12.26 L 0.249 10.434 L 4.134 6.35 Q 5.18 5.159 5.464 4.324 A 1.788 1.788 0 0 0 5.57 3.752 A 2.861 2.861 0 0 0 5.537 3.303 Q 5.501 3.074 5.424 2.89 A 1.252 1.252 0 0 0 5.23 2.565 A 1.1 1.1 0 0 0 4.599 2.194 A 1.684 1.684 0 0 0 4.242 2.158 A 1.204 1.204 0 0 0 3.321 2.56 A 1.613 1.613 0 0 0 3.204 2.702 A 2.014 2.014 0 0 0 2.857 3.509 A 2.804 2.804 0 0 0 2.806 4.059 L 0 4.059 A 3.969 3.969 0 0 1 0.556 2.005 Q 1.112 1.063 2.1 0.531 A 4.493 4.493 0 0 1 3.97 0.011 A 5.392 5.392 0 0 1 4.308 0 A 6.812 6.812 0 0 1 5.471 0.093 Q 6.105 0.203 6.609 0.443 A 3.243 3.243 0 0 1 7.326 0.905 Q 8.384 1.81 8.384 3.503 Q 8.384 4.217 8.118 4.893 Q 7.853 5.57 7.292 6.313 A 10.022 10.022 0 0 1 6.923 6.77 Q 6.509 7.257 5.887 7.896 A 42.452 42.452 0 0 1 5.487 8.301 L 3.926 10.102 L 8.683 10.102 Z"></path>
</g>
</svg>
