<?xml version="1.0" encoding="UTF-8" standalone="no"?>
<svg width="35px" height="35px" viewBox="0 0 35 35" version="1.1" xmlns="http://www.w3.org/2000/svg" xmlns:xlink="http://www.w3.org/1999/xlink" xmlns:sketch="http://www.bohemiancoding.com/sketch/ns">
    <!-- Generator: Sketch 3.4.3 (16044) - http://www.bohemiancoding.com/sketch -->
    <title>fmt-link</title>
    <desc>Created with Sketch.</desc>
    <defs></defs>
    <g id="Page-1" stroke="none" stroke-width="1" fill="none" fill-rule="evenodd" sketch:type="MSPage">
        <g id="fmt-link" sketch:type="MSLayerGroup" transform="translate(7.000000, 7.000000)" fill="#000000">
            <g id="H1" sketch:type="MSShapeGroup">
                <g id="Page-1">
                    <g id="Text-Blocks">
                        <g id="Group-Copy-2">
                            <path d="M7.682927,16.6363704 L6.632928,17.7119802 C6.17195,18.1558847 5.617078,18.3778338 4.968293,18.3778338 C4.319508,18.3778338 3.764636,18.1558847 3.303657,17.7119802 C3.081706,17.4900268 2.910976,17.2382005 2.791463,16.9564916 C2.671951,16.6747826 2.612195,16.3717368 2.612195,16.0473477 C2.612195,15.7400273 2.671951,15.4455176 2.791463,15.1638086 C2.910976,14.8820997 3.081706,14.6302734 3.303657,14.4083233 L7.19634,10.5412485 C7.606099,10.1485645 8.143899,9.7644197 8.809756,9.3888111 C9.475613,9.0131991 10.090241,9.1070989 10.653659,9.6705168 C10.909756,9.9095422 11.21707,10.0290533 11.57561,10.0290533 C11.93415,10.0290533 12.232924,9.9010062 12.471953,9.6449054 C12.72805,9.3888078 12.856098,9.081494 12.856098,8.7229541 C12.856098,8.3644176 12.72805,8.0571038 12.471953,7.8010029 C11.532923,6.8790484 10.418908,6.494907 9.129877,6.6485655 C7.840847,6.8022241 6.590252,7.4851433 5.378049,8.697346 L1.459756,12.5644208 C0.998778,13.0424718 0.640245,13.5802685 0.384146,14.1778338 C0.128048,14.7753992 0,15.3985628 0,16.0473477 C0,16.7132046 0.128048,17.3449043 0.384146,17.942468 C0.640245,18.540032 0.998778,19.0778313 1.459756,19.5558826 C1.937807,20.0339339 2.484143,20.3924669 3.09878,20.6314924 C3.713416,20.870518 4.336583,20.990029 4.968293,20.990029 C5.600002,20.990029 6.218898,20.870518 6.824999,20.6314924 C7.431101,20.3924669 7.973169,20.0339339 8.45122,19.5558826 L9.526829,18.4802729 C9.782927,18.2412474 9.910977,17.9424696 9.910977,17.583933 C9.910977,17.2253932 9.782927,16.9180794 9.526829,16.6619818 C9.270732,16.405881 8.963418,16.2778338 8.604878,16.2778338 C8.246338,16.2778338 7.939024,16.3973449 7.682927,16.6363704 L7.682927,16.6363704 L7.682927,16.6363704 Z M19.540246,1.5778338 C18.515849,0.5705124 17.371957,0.0455165 16.108535,0.002833 C14.845116,-0.0398505 13.743908,0.3997818 12.804878,1.3217363 L11.473171,2.6534436 C11.217073,2.8924691 11.089023,3.1912468 11.089023,3.5497867 C11.089023,3.9083233 11.217073,4.2156371 11.473171,4.4717379 C11.729268,4.7278355 12.036582,4.8558826 12.395122,4.8558826 C12.753662,4.8558826 13.060976,4.7363715 13.317073,4.497346 L14.623172,3.1656387 C15.118295,2.6875877 15.651827,2.5083211 16.223781,2.6278355 C16.795735,2.7473466 17.286584,3.0119769 17.696343,3.4217363 C17.918293,3.6436897 18.089024,3.8955159 18.208538,4.1772249 C18.328049,4.4589339 18.387805,4.7619796 18.387805,5.0863721 C18.387805,5.3936891 18.328049,5.6881989 18.208538,5.9699078 C18.089024,6.2516168 17.918293,6.503443 17.696343,6.7253965 L13.547559,10.8485655 C12.591457,11.7875954 11.865855,12.1760048 11.370732,12.0138103 C10.875609,11.8516124 10.534147,11.6680777 10.346341,11.4631997 C10.090244,11.2241742 9.78293,11.1046631 9.42439,11.1046631 C9.06585,11.1046631 8.767076,11.2327102 8.528047,11.4888078 C8.27195,11.7449086 8.143902,12.0522224 8.143902,12.410759 C8.143902,12.7692989 8.27195,13.0680766 8.528047,13.3071021 C8.954879,13.7510057 9.415851,14.0796628 9.910977,14.2930769 C10.4061,14.5064943 10.918289,14.6132013 11.447563,14.6132013 C12.079272,14.6132013 12.728044,14.4552748 13.393904,14.1394184 C14.059761,13.8235653 14.717069,13.3412528 15.365854,12.692468 L19.540246,8.5692989 C20.001221,8.0912446 20.359754,7.553448 20.615852,6.9558826 C20.871953,6.3583173 21,5.7351536 21,5.0863721 C21,4.4205118 20.871953,3.7888122 20.615852,3.1912468 C20.359754,2.5936848 20.001221,2.0558848 19.540246,1.5778338 L19.540246,1.5778338 L19.540246,1.5778338 Z" id="Page-1"></path>
                        </g>
                    </g>
                </g>
            </g>
        </g>
        <path d="M7.5,19 L27.5,19 L29,19 L29,16 L27.5,16 L7.5,16 L6,16 L6,19 L7.5,19 L7.5,19 Z" id="Shape" fill="#000000" sketch:type="MSShapeGroup"></path>
    </g>
</svg>