<?xml version="1.0" encoding="utf-8"?>
<!-- Generated by IcoMoon.io -->
<!DOCTYPE svg PUBLIC "-//W3C//DTD SVG 1.1//EN" "http://www.w3.org/Graphics/SVG/1.1/DTD/svg11.dtd">
<svg version="1.1" xmlns="http://www.w3.org/2000/svg" xmlns:xlink="http://www.w3.org/1999/xlink" width="32" height="32" viewBox="0 0 32 32">
<path fill="#444" d="M13.424 21.61l-0.96 0.983c-0.421 0.406-0.929 0.609-1.522 0.609s-1.101-0.203-1.522-0.609c-0.203-0.203-0.359-0.433-0.468-0.691s-0.164-0.535-0.164-0.831c0-0.281 0.055-0.55 0.164-0.808s0.265-0.488 0.468-0.691l3.559-3.536c0.375-0.359 0.866-0.71 1.475-1.054s1.171-0.258 1.686 0.258c0.234 0.219 0.515 0.328 0.843 0.328s0.601-0.117 0.82-0.351c0.234-0.234 0.351-0.515 0.351-0.843s-0.117-0.609-0.351-0.843c-0.859-0.843-1.877-1.194-3.056-1.054s-2.322 0.765-3.43 1.873l-3.582 3.536c-0.421 0.437-0.749 0.929-0.983 1.475s-0.351 1.116-0.351 1.709c0 0.609 0.117 1.186 0.351 1.733s0.562 1.038 0.983 1.475c0.437 0.437 0.937 0.765 1.499 0.983s1.132 0.328 1.709 0.328c0.578 0 1.143-0.109 1.698-0.328s1.050-0.546 1.487-0.983l0.983-0.983c0.234-0.219 0.351-0.492 0.351-0.82s-0.117-0.609-0.351-0.843c-0.234-0.234-0.515-0.351-0.843-0.351s-0.609 0.109-0.843 0.328v0 0zM24.265 7.843c-0.937-0.921-1.982-1.401-3.138-1.44s-2.162 0.363-3.020 1.206l-1.218 1.218c-0.234 0.219-0.351 0.492-0.351 0.819s0.117 0.609 0.351 0.843c0.234 0.234 0.515 0.351 0.843 0.351s0.609-0.109 0.843-0.328l1.194-1.218c0.453-0.437 0.941-0.601 1.463-0.492s0.972 0.351 1.346 0.726c0.203 0.203 0.359 0.433 0.468 0.691s0.164 0.535 0.164 0.831c0 0.281-0.055 0.55-0.164 0.808s-0.265 0.488-0.468 0.691l-3.793 3.77c-0.874 0.859-1.538 1.214-1.99 1.065s-0.765-0.316-0.937-0.503c-0.234-0.219-0.515-0.328-0.843-0.328s-0.601 0.117-0.819 0.351c-0.234 0.234-0.351 0.515-0.351 0.843s0.117 0.601 0.351 0.82c0.39 0.406 0.812 0.706 1.264 0.901s0.921 0.293 1.405 0.293c0.578 0 1.171-0.144 1.779-0.433s1.21-0.73 1.803-1.323l3.817-3.77c0.421-0.437 0.749-0.929 0.983-1.475s0.351-1.116 0.351-1.709c0-0.609-0.117-1.186-0.351-1.733s-0.562-1.038-0.983-1.475v0 0z"></path>
<path fill="#444" d="M6.857 17.371h19.657v-2.743h-21.029v2.743h1.371z"></path>
</svg>
