<?xml version="1.0" encoding="UTF-8" standalone="no"?>
<svg width="35px" height="35px" viewBox="0 0 35 35" version="1.1" xmlns="http://www.w3.org/2000/svg" xmlns:xlink="http://www.w3.org/1999/xlink" xmlns:sketch="http://www.bohemiancoding.com/sketch/ns">
    <!-- Generator: Sketch 3.4.3 (16044) - http://www.bohemiancoding.com/sketch -->
    <title>H1</title>
    <desc>Created with Sketch.</desc>
    <defs></defs>
    <g id="Page-1" stroke="none" stroke-width="1" fill="none" fill-rule="evenodd" sketch:type="MSPage">
        <g id="Text-Blocks" sketch:type="MSArtboardGroup" transform="translate(-732.000000, -184.000000)" fill="#000000">
            <g id="Group-Copy-2" sketch:type="MSLayerGroup" transform="translate(587.000000, 169.000000)">
                <path d="M158.682927,38.6363704 L157.632928,39.7119802 C157.17195,40.1558847 156.617078,40.3778338 155.968293,40.3778338 C155.319508,40.3778338 154.764636,40.1558847 154.303657,39.7119802 C154.081706,39.4900268 153.910976,39.2382005 153.791463,38.9564916 C153.671951,38.6747826 153.612195,38.3717368 153.612195,38.0473477 C153.612195,37.7400273 153.671951,37.4455176 153.791463,37.1638086 C153.910976,36.8820997 154.081706,36.6302734 154.303657,36.4083233 L158.19634,32.5412485 C158.606099,32.1485645 159.143899,31.7644197 159.809756,31.3888111 C160.475613,31.0131991 161.090241,31.1070989 161.653659,31.6705168 C161.909756,31.9095422 162.21707,32.0290533 162.57561,32.0290533 C162.93415,32.0290533 163.232924,31.9010062 163.471953,31.6449054 C163.72805,31.3888078 163.856098,31.081494 163.856098,30.7229541 C163.856098,30.3644176 163.72805,30.0571038 163.471953,29.8010029 C162.532923,28.8790484 161.418908,28.494907 160.129877,28.6485655 C158.840847,28.8022241 157.590252,29.4851433 156.378049,30.697346 L152.459756,34.5644208 C151.998778,35.0424718 151.640245,35.5802685 151.384146,36.1778338 C151.128048,36.7753992 151,37.3985628 151,38.0473477 C151,38.7132046 151.128048,39.3449043 151.384146,39.942468 C151.640245,40.540032 151.998778,41.0778313 152.459756,41.5558826 C152.937807,42.0339339 153.484143,42.3924669 154.09878,42.6314924 C154.713416,42.870518 155.336583,42.990029 155.968293,42.990029 C156.600002,42.990029 157.218898,42.870518 157.824999,42.6314924 C158.431101,42.3924669 158.973169,42.0339339 159.45122,41.5558826 L160.526829,40.4802729 C160.782927,40.2412474 160.910977,39.9424696 160.910977,39.583933 C160.910977,39.2253932 160.782927,38.9180794 160.526829,38.6619818 C160.270732,38.405881 159.963418,38.2778338 159.604878,38.2778338 C159.246338,38.2778338 158.939024,38.3973449 158.682927,38.6363704 L158.682927,38.6363704 Z M170.540246,23.5778338 C169.515849,22.5705124 168.371957,22.0455165 167.108535,22.002833 C165.845116,21.9601495 164.743908,22.3997818 163.804878,23.3217363 L162.473171,24.6534436 C162.217073,24.8924691 162.089023,25.1912468 162.089023,25.5497867 C162.089023,25.9083233 162.217073,26.2156371 162.473171,26.4717379 C162.729268,26.7278355 163.036582,26.8558826 163.395122,26.8558826 C163.753662,26.8558826 164.060976,26.7363715 164.317073,26.497346 L165.623172,25.1656387 C166.118295,24.6875877 166.651827,24.5083211 167.223781,24.6278355 C167.795735,24.7473466 168.286584,25.0119769 168.696343,25.4217363 C168.918293,25.6436897 169.089024,25.8955159 169.208538,26.1772249 C169.328049,26.4589339 169.387805,26.7619796 169.387805,27.0863721 C169.387805,27.3936891 169.328049,27.6881989 169.208538,27.9699078 C169.089024,28.2516168 168.918293,28.503443 168.696343,28.7253965 L164.547559,32.8485655 C163.591457,33.7875954 162.865855,34.1760048 162.370732,34.0138103 C161.875609,33.8516124 161.534147,33.6680777 161.346341,33.4631997 C161.090244,33.2241742 160.78293,33.1046631 160.42439,33.1046631 C160.06585,33.1046631 159.767076,33.2327102 159.528047,33.4888078 C159.27195,33.7449086 159.143902,34.0522224 159.143902,34.410759 C159.143902,34.7692989 159.27195,35.0680766 159.528047,35.3071021 C159.954879,35.7510057 160.415851,36.0796628 160.910977,36.2930769 C161.4061,36.5064943 161.918289,36.6132013 162.447563,36.6132013 C163.079272,36.6132013 163.728044,36.4552748 164.393904,36.1394184 C165.059761,35.8235653 165.717069,35.3412528 166.365854,34.692468 L170.540246,30.5692989 C171.001221,30.0912446 171.359754,29.553448 171.615852,28.9558826 C171.871953,28.3583173 172,27.7351536 172,27.0863721 C172,26.4205118 171.871953,25.7888122 171.615852,25.1912468 C171.359754,24.5936848 171.001221,24.0558848 170.540246,23.5778338 L170.540246,23.5778338 Z" id="Page-1" sketch:type="MSShapeGroup"></path>
            </g>
        </g>
    </g>
</svg>