<!-- Generated by IcoMoon.io -->
<svg version="1.1" xmlns="http://www.w3.org/2000/svg" width="879" height="1024" viewBox="0 0 879 1024">
<title>superscript</title>
<path d="M512.571 782.286v95.429h-141.714l-90.857-144-13.714-24c-3.429-4-5.143-8-6.286-12h-1.714c-1.143 4-3.429 8-5.143 12-3.429 6.857-8.571 16-14.286 25.143l-88.571 142.857h-147.429v-95.429h73.143l112.571-166.286-105.714-155.429h-78.286v-96h157.714l79.429 130.286c5.143 8 9.143 16.571 13.143 24 3.429 4 5.143 8 6.286 12h1.714c1.143-4 3.429-8 6.286-12l14.286-24 80-130.286h146.857v96h-71.429l-105.143 152.571 116.571 169.143h62.286zM876.571 394.286v117.714h-293.714l-1.714-15.429c-1.143-8-2.286-18.857-2.286-26.286 0-156 200-169.143 200-252 0-29.714-26.857-49.714-57.143-49.714-21.714 0-41.143 10.286-55.429 22.286-7.429 6.286-14.286 14.286-20.571 21.714l-60-52.571c10.286-14.286 21.714-26.286 36-37.714 24-18.857 58.857-37.143 107.429-37.143 82.857 0 140.571 48.571 140.571 124.571 0 137.143-189.714 148.571-197.714 230.286h132.571v-45.714h72z"></path>
</svg>
