<?xml version="1.0" encoding="utf-8"?>
<!-- Generated by IcoMoon.io -->
<!DOCTYPE svg PUBLIC "-//W3C//DTD SVG 1.1//EN" "http://www.w3.org/Graphics/SVG/1.1/DTD/svg11.dtd">
<svg version="1.1" xmlns="http://www.w3.org/2000/svg" xmlns:xlink="http://www.w3.org/1999/xlink" width="32" height="32" viewBox="0 0 32 32">
<path fill="#444" d="M17.716 23.040h-3.311v-6.761h-6.204v6.761h-3.321v-15.664h3.321v6.139h6.204v-6.139h3.311v15.664z"></path>
<g transform="translate(21,11)">
    <path fill="#444" d="M 2.905 7.131 L 2.905 5.047 L 4.225 5.047 A 2.318 2.318 0 0 0 4.836 4.974 Q 5.794 4.711 5.794 3.511 Q 5.794 2.914 5.42 2.536 A 1.219 1.219 0 0 0 4.851 2.216 Q 4.659 2.166 4.432 2.159 A 2.374 2.374 0 0 0 4.366 2.158 A 1.604 1.604 0 0 0 3.787 2.261 A 1.48 1.48 0 0 0 3.399 2.482 A 1.159 1.159 0 0 0 3.142 2.758 A 0.948 0.948 0 0 0 2.988 3.287 L 0.191 3.287 A 2.864 2.864 0 0 1 0.722 1.586 A 3.355 3.355 0 0 1 1.776 0.634 A 4.213 4.213 0 0 1 2.196 0.419 A 4.901 4.901 0 0 1 3.85 0.015 A 5.814 5.814 0 0 1 4.267 0 Q 6.284 0 7.438 0.922 A 2.992 2.992 0 0 1 8.578 3.109 A 4.198 4.198 0 0 1 8.591 3.453 A 2.517 2.517 0 0 1 8.199 4.796 A 3.099 3.099 0 0 1 8.114 4.927 Q 7.637 5.62 6.724 6.051 A 3.678 3.678 0 0 1 7.559 6.474 A 2.974 2.974 0 0 1 8.234 7.11 A 2.599 2.599 0 0 1 8.739 8.304 A 3.511 3.511 0 0 1 8.782 8.865 A 3.391 3.391 0 0 1 8.544 10.158 A 3.14 3.14 0 0 1 7.538 11.455 A 4.387 4.387 0 0 1 5.889 12.241 Q 5.256 12.4 4.513 12.423 A 8.154 8.154 0 0 1 4.267 12.426 A 5.471 5.471 0 0 1 2.516 12.15 A 5.112 5.112 0 0 1 2.063 11.974 Q 1.046 11.522 0.523 10.721 A 3.231 3.231 0 0 1 0.002 9.025 A 3.908 3.908 0 0 1 0 8.899 L 2.814 8.899 A 1.236 1.236 0 0 0 3.182 9.784 A 1.688 1.688 0 0 0 3.262 9.861 A 1.556 1.556 0 0 0 4.245 10.265 A 2.025 2.025 0 0 0 4.366 10.268 A 2.151 2.151 0 0 0 4.868 10.213 A 1.475 1.475 0 0 0 5.545 9.857 A 1.362 1.362 0 0 0 5.984 8.867 A 1.811 1.811 0 0 0 5.985 8.807 A 2.872 2.872 0 0 0 5.951 8.348 Q 5.86 7.79 5.528 7.512 A 1.533 1.533 0 0 0 4.965 7.22 Q 4.738 7.154 4.468 7.137 A 3.125 3.125 0 0 0 4.267 7.131 L 2.905 7.131 Z"></path>
</g>
</svg>
