<?xml version="1.0" encoding="UTF-8" standalone="no"?>
<svg width="35px" height="35px" viewBox="0 0 35 35" version="1.1" xmlns="http://www.w3.org/2000/svg" xmlns:xlink="http://www.w3.org/1999/xlink" xmlns:sketch="http://www.bohemiancoding.com/sketch/ns">
    <!-- Generator: Sketch 3.4.3 (16044) - http://www.bohemiancoding.com/sketch -->
    <title>H1</title>
    <desc>Created with Sketch.</desc>
    <defs></defs>
    <g id="Page-1" stroke="none" stroke-width="1" fill="none" fill-rule="evenodd" sketch:type="MSPage">
        <g id="Text-Blocks" sketch:type="MSArtboardGroup" transform="translate(-611.000000, -184.000000)" fill="#000000">
            <g id="Group-Copy-2" sketch:type="MSLayerGroup" transform="translate(587.000000, 169.000000)">
                <path d="M39.1171875,40.2 L37.875,36.121875 L31.6289062,36.121875 L30.3867188,40.2 L26.4726562,40.2 L32.5195312,22.996875 L36.9609375,22.996875 L43.03125,40.2 L39.1171875,40.2 Z M37.0078125,33.075 C35.8593693,29.379669 35.2128913,27.2898462 35.0683594,26.8054688 C34.9238274,26.3210913 34.8203128,25.9382827 34.7578125,25.6570313 C34.4999987,26.6570363 33.7617248,29.1296678 32.5429688,33.075 L37.0078125,33.075 Z M53.2265625,40.2 L52.5351562,38.41875 L52.4414062,38.41875 C51.8398407,39.1765663 51.2207063,39.7019517 50.5839844,39.9949219 C49.9472624,40.2878921 49.1171926,40.434375 48.09375,40.434375 C46.8359312,40.434375 45.8457067,40.0750036 45.1230469,39.35625 C44.400387,38.6374964 44.0390625,37.6140691 44.0390625,36.2859375 C44.0390625,34.8953055 44.5253858,33.8699252 45.4980469,33.2097656 C46.470708,32.5496061 47.9374902,32.1843754 49.8984375,32.1140625 L52.171875,32.04375 L52.171875,31.4695313 C52.171875,30.1413996 51.4921943,29.4773438 50.1328125,29.4773438 C49.0859323,29.4773438 47.8554758,29.7937468 46.4414062,30.4265625 L45.2578125,28.0125 C46.7656325,27.2234336 48.4374908,26.8289063 50.2734375,26.8289063 C52.0312588,26.8289063 53.3789016,27.2117149 54.3164062,27.9773438 C55.2539109,28.7429726 55.7226562,29.9070234 55.7226562,31.4695313 L55.7226562,40.2 L53.2265625,40.2 Z M52.171875,34.1296875 L50.7890625,34.1765625 C49.7499948,34.2078127 48.976565,34.3953108 48.46875,34.7390625 C47.960935,35.0828142 47.7070312,35.6062465 47.7070312,36.309375 C47.7070312,37.3171925 48.2851505,37.8210938 49.4414062,37.8210938 C50.2695354,37.8210938 50.9316381,37.5828149 51.4277344,37.10625 C51.9238306,36.6296851 52.171875,35.9968789 52.171875,35.2078125 L52.171875,34.1296875 Z" id="Aa" sketch:type="MSShapeGroup"></path>
            </g>
        </g>
    </g>
</svg>