<?xml version="1.0" encoding="utf-8"?>
<!-- Generated by IcoMoon.io -->
<!DOCTYPE svg PUBLIC "-//W3C//DTD SVG 1.1//EN" "http://www.w3.org/Graphics/SVG/1.1/DTD/svg11.dtd">
<svg version="1.1" xmlns="http://www.w3.org/2000/svg" xmlns:xlink="http://www.w3.org/1999/xlink" width="32" height="32" viewBox="0 0 32 32">
<path fill="#444" d="M17.716 23.040h-3.311v-6.761h-6.204v6.761h-3.321v-15.664h3.321v6.139h6.204v-6.139h3.311v15.664z"></path>
<g transform="translate(21,11)">
    <path fill="#444" d="M 2.457 6.699 L 0.233 6.176 L 0.972 0 L 8.036 0 L 8.036 2.175 L 3.246 2.175 L 2.972 4.574 A 2.309 2.309 0 0 1 3.222 4.449 Q 3.359 4.39 3.522 4.337 A 4.982 4.982 0 0 1 3.756 4.267 A 3.692 3.692 0 0 1 4.495 4.141 A 3.31 3.31 0 0 1 4.707 4.134 A 4.865 4.865 0 0 1 5.823 4.254 Q 6.833 4.492 7.475 5.2 Q 8.331 6.144 8.429 7.76 A 7.104 7.104 0 0 1 8.442 8.193 A 4.487 4.487 0 0 1 8.224 9.607 A 4.072 4.072 0 0 1 7.923 10.297 Q 7.405 11.239 6.467 11.746 A 4.133 4.133 0 0 1 5.197 12.175 A 5.561 5.561 0 0 1 4.25 12.252 Q 3.113 12.252 2.117 11.783 A 4.14 4.14 0 0 1 1.133 11.145 A 3.563 3.563 0 0 1 0.556 10.496 A 3.124 3.124 0 0 1 0 8.679 A 3.691 3.691 0 0 1 0 8.649 L 2.806 8.649 A 2.029 2.029 0 0 0 2.885 9.109 A 1.42 1.42 0 0 0 3.229 9.704 A 1.28 1.28 0 0 0 4 10.079 A 1.782 1.782 0 0 0 4.234 10.094 Q 5.407 10.094 5.605 8.647 A 4.787 4.787 0 0 0 5.645 8.002 A 3.155 3.155 0 0 0 5.568 7.272 Q 5.281 6.068 3.918 6.068 Q 2.939 6.068 2.457 6.699 Z"></path>
</g>
</svg>
