<?xml version="1.0" encoding="utf-8"?>
<!-- Generated by IcoMoon.io -->
<!DOCTYPE svg PUBLIC "-//W3C//DTD SVG 1.1//EN" "http://www.w3.org/Graphics/SVG/1.1/DTD/svg11.dtd">
<svg version="1.1" xmlns="http://www.w3.org/2000/svg" xmlns:xlink="http://www.w3.org/1999/xlink" width="32" height="32" viewBox="0 0 32 32">
<path fill="#444" d="M13.336 18.058h-5.314l-2.625 4.982h-2.025l8.561-15.664h1.864l1.971 15.664h-1.821l-0.611-4.982zM13.143 16.386l-0.375-3.204c-0.171-1.279-0.275-2.529-0.311-3.75-0.264 0.629-0.552 1.254-0.863 1.875s-1.202 2.314-2.673 5.079h4.221zM23.654 11.083c0.657 0 1.243 0.177 1.757 0.53s0.914 0.863 1.2 1.527h0.118l0.718-1.843h1.361l-2.496 11.743h-1.425l0.279-2.239h-0.086c-1.279 1.636-2.625 2.454-4.039 2.454-0.993 0-1.771-0.354-2.336-1.061s-0.846-1.675-0.846-2.904c0-1.486 0.254-2.864 0.761-4.136s1.207-2.268 2.1-2.989c0.893-0.721 1.871-1.082 2.936-1.082v0zM21.618 21.765c0.693 0 1.382-0.33 2.068-0.991s1.243-1.521 1.671-2.582c0.429-1.061 0.643-2.123 0.643-3.188 0-0.736-0.2-1.321-0.6-1.757s-0.925-0.654-1.575-0.654c-0.743 0-1.434 0.307-2.073 0.921s-1.141 1.446-1.505 2.496c-0.364 1.050-0.546 2.157-0.546 3.321 0 0.814 0.168 1.423 0.504 1.827s0.807 0.605 1.414 0.605v0z"></path>
</svg>
