<?xml version="1.0" encoding="utf-8"?>
<!-- Generated by IcoMoon.io -->
<!DOCTYPE svg PUBLIC "-//W3C//DTD SVG 1.1//EN" "http://www.w3.org/Graphics/SVG/1.1/DTD/svg11.dtd">
<svg version="1.1" xmlns="http://www.w3.org/2000/svg" xmlns:xlink="http://www.w3.org/1999/xlink" width="32" height="32" viewBox="0 0 32 32">
<path fill="#444" d="M27.33 20.592c-0.724 4.331-4.49 7.632-9.026 7.632-5.055 0-9.152-4.098-9.152-9.152 0-0.546 0.048-1.080 0.139-1.6h-8.267v-7.552h9.937l1.327 1.327 1.327-1.327h5.329v0.022c3.9 0.269 7.128 2.982 8.163 6.619 0.435-0.351 0.991-0.561 1.597-0.561 1.396 0 2.528 1.117 2.528 2.496s-1.132 2.496-2.528 2.496c-0.506 0-0.978-0.147-1.374-0.4v0zM27.456 18.496c0-0.668 0.555-1.216 1.248-1.216s1.248 0.548 1.248 1.216c0 0.668-0.555 1.216-1.248 1.216s-1.248-0.548-1.248-1.216zM10.43 11.2h-8.126v4.992h8.671c-0.351 0.892-0.543 1.863-0.543 2.88 0 4.348 3.524 7.872 7.872 7.872s7.872-3.524 7.872-7.872c0-4.283-3.421-7.768-7.68-7.87v-0.002h-4.35l-1.858 1.858-1.858-1.858z"></path>
</svg>
