<?xml version="1.0" encoding="utf-8"?> <!-- Generator: IcoMoon.io --> <!DOCTYPE svg PUBLIC "-//W3C//DTD SVG 1.1//EN" "http://www.w3.org/Graphics/SVG/1.1/DTD/svg11.dtd"> <svg width="32" height="32" viewBox="0 0 32 32" version="1.1" xmlns="http://www.w3.org/2000/svg" xmlns:xlink="http://www.w3.org/1999/xlink" xmlns:sketch="http://www.bohemiancoding.com/sketch/ns" fill="#000000"> <g><path d="M 12.733,5.792 L 12.733,4.512 L 3.845,4.512 L 3.845,5.792 L 12.733,5.792 Z M 12.733,5.792M 6.368,26.849 L 7.648,26.849 L 7.648,5.088 L 6.368,5.088 L 6.368,26.849 Z M 6.368,26.849M 8.928,14.746 L 23.008,14.746 L 23.008,5.024 L 21.728,5.024 L 21.728,13.466 L 10.208,13.466 L 10.208,5.079 L 8.928,5.079 L 8.928,14.746 Z M 8.928,14.746M 10.208,17.248 L 21.728,17.248 L 21.728,26.97 L 23.008,26.97 L 23.008,15.968 L 8.928,15.968 L 8.928,26.908 L 10.208,26.908 L 10.208,17.248 Z M 10.208,17.248M 24.288,26.656 L 25.568,26.656 L 25.568,5.088 L 24.288,5.088 L 24.288,26.656 Z M 24.288,26.656M 12.733,27.488 L 12.733,26.208 L 3.845,26.208 L 3.845,27.488 L 12.733,27.488 Z M 12.733,27.488M 28.157,5.792 L 28.157,4.512 L 19.269,4.512 L 19.269,5.792 L 28.157,5.792 Z M 28.157,5.792M 28.157,27.488 L 28.157,26.208 L 19.269,26.208 L 19.269,27.488 L 28.157,27.488 Z M 28.157,27.488"></path></g></svg>