<?xml version="1.0" encoding="utf-8"?>
<!-- Generated by IcoMoon.io -->
<!DOCTYPE svg PUBLIC "-//W3C//DTD SVG 1.1//EN" "http://www.w3.org/Graphics/SVG/1.1/DTD/svg11.dtd">
<svg version="1.1" xmlns="http://www.w3.org/2000/svg" xmlns:xlink="http://www.w3.org/1999/xlink" width="32" height="32" viewBox="0 0 32 32">
<path fill="#444" d="M7.008 15.968c0-1.414 1.146-2.56 2.56-2.56s2.56 1.146 2.56 2.56c0 1.414-1.146 2.56-2.56 2.56s-2.56-1.146-2.56-2.56zM10.848 15.968c0-0.707-0.573-1.28-1.28-1.28s-1.28 0.573-1.28 1.28c0 0.707 0.573 1.28 1.28 1.28s1.28-0.573 1.28-1.28zM13.408 15.968c0-1.414 1.146-2.56 2.56-2.56s2.56 1.146 2.56 2.56c0 1.414-1.146 2.56-2.56 2.56s-2.56-1.146-2.56-2.56zM17.248 15.968c0-0.707-0.573-1.28-1.28-1.28s-1.28 0.573-1.28 1.28c0 0.707 0.573 1.28 1.28 1.28s1.28-0.573 1.28-1.28zM19.808 15.968c0-1.414 1.146-2.56 2.56-2.56s2.56 1.146 2.56 2.56c0 1.414-1.146 2.56-2.56 2.56s-2.56-1.146-2.56-2.56zM23.648 15.968c0-0.707-0.573-1.28-1.28-1.28s-1.28 0.573-1.28 1.28c0 0.707 0.573 1.28 1.28 1.28s1.28-0.573 1.28-1.28zM29.602 16.021l-9.797 9.773 0.902 0.908 10.741-10.681-10.78-10.702-0.902 0.908 9.835 9.794zM1.015 15.568l-0.457 0.454 10.742 10.681 0.903-0.908-9.83-9.773 9.867-9.794-0.902-0.908-10.323 10.248z"></path>
</svg>
