<?xml version="1.0" encoding="utf-8"?>
<!-- Generated by IcoMoon.io -->
<!DOCTYPE svg PUBLIC "-//W3C//DTD SVG 1.1//EN" "http://www.w3.org/Graphics/SVG/1.1/DTD/svg11.dtd">
<svg version="1.1" xmlns="http://www.w3.org/2000/svg" xmlns:xlink="http://www.w3.org/1999/xlink" width="32" height="32" viewBox="0 0 32 32">
<path fill="#444" d="M31.36 4.48v23.040h-30.72v-23.040zM1.92 26.24h28.16v-20.48h-28.16zM18.665 14.883l10.209 10.102h-25.61l0.034-10.733 3.761-3.245 7.707 7.618zM4.548 23.706h21.213l-7.11-7.035-3.898 3.742-7.753-7.664-2.424 2.092zM21.12 11.584c0-1.767 1.433-3.2 3.2-3.2s3.2 1.433 3.2 3.2c0 1.767-1.433 3.2-3.2 3.2s-3.2-1.433-3.2-3.2zM26.24 11.584c0-1.060-0.86-1.92-1.92-1.92s-1.92 0.86-1.92 1.92c0 1.060 0.86 1.92 1.92 1.92s1.92-0.86 1.92-1.92z"></path>
</svg>
