<?xml version="1.0" encoding="utf-8"?>
<!-- Generated by IcoMoon.io -->
<!DOCTYPE svg PUBLIC "-//W3C//DTD SVG 1.1//EN" "http://www.w3.org/Graphics/SVG/1.1/DTD/svg11.dtd">
<svg version="1.1" xmlns="http://www.w3.org/2000/svg" xmlns:xlink="http://www.w3.org/1999/xlink" width="32" height="32" viewBox="0 0 32 32">
<path fill="#444" d="M21.056 11.072h3.968v-3.968h-3.968v3.968zM23.744 8.384v1.408h-1.408v-1.408h1.408z"></path>
<path fill="#444" d="M5.76 15.36v-9.6h20.48v9.664h-4.516c-0.318-2.845-2.731-5.056-5.66-5.056-2.907 0-5.306 2.178-5.653 4.992h-4.651zM5.76 16.64v9.6h20.48v-9.536h-4.516c-0.318 2.845-2.731 5.056-5.66 5.056-2.951 0-5.378-2.245-5.667-5.12h-4.637zM4.48 27.52h23.040v-23.040h-23.040v23.040zM11.648 16.064c0-2.439 1.977-4.416 4.416-4.416s4.416 1.977 4.416 4.416c0 2.439-1.977 4.416-4.416 4.416s-4.416-1.977-4.416-4.416z"></path>
</svg>
