<?xml version="1.0" encoding="utf-8"?> <!-- Generator: IcoMoon.io --> <!DOCTYPE svg PUBLIC "-//W3C//DTD SVG 1.1//EN" "http://www.w3.org/Graphics/SVG/1.1/DTD/svg11.dtd"> <svg width="33.4708137512207" height="33.47075653076172" viewBox="0 0 33.4708137512207 33.47075653076172" xmlns="http://www.w3.org/2000/svg" xmlns:xlink="http://www.w3.org/1999/xlink" fill="#000000"><g><path d="M 29.794,2.333l-0.126-0.126c-2.942-2.942-7.756-2.942-10.698,0L 12.154,9.023 c-2.942,2.942-2.942,7.755,0,10.697l 0.126,0.126c 0.245,0.245, 0.505,0.466, 0.773,0.671l 2.495-2.495 c-0.291-0.172-0.566-0.377-0.816-0.627l-0.126-0.126c-1.597-1.597-1.597-4.196,0-5.793L 21.422,4.659 c 1.597-1.597, 4.196-1.597, 5.793,0l 0.126,0.126c 1.597,1.597, 1.597,4.197,0,5.793l-3.084,3.084 c 0.535,1.322, 0.789,2.731, 0.767,4.137l 4.769-4.769C 32.735,10.088, 32.735,5.274, 29.794,2.333zM 19.72,12.154c-0.245-0.245-0.505-0.466-0.773-0.67l-2.495,2.495c 0.291,0.172, 0.566,0.377, 0.816,0.627l 0.126,0.126 c 1.597,1.597, 1.597,4.196,0,5.793L 10.578,27.342c-1.597,1.597-4.196,1.597-5.793,0l-0.126-0.126 c-1.597-1.597-1.597-4.196,0-5.793l 3.084-3.084c-0.535-1.322-0.789-2.731-0.767-4.137l-4.769,4.769 c-2.942,2.942-2.942,7.756,0,10.698l 0.126,0.126c 2.942,2.942, 7.756,2.942, 10.698,0l 6.816-6.816 c 2.942-2.942, 2.942-7.756,0-10.698L 19.72,12.154z"></path></g></svg>