<?xml version="1.0" encoding="utf-8"?>
<!-- Generated by IcoMoon.io -->
<!DOCTYPE svg PUBLIC "-//W3C//DTD SVG 1.1//EN" "http://www.w3.org/Graphics/SVG/1.1/DTD/svg11.dtd">
<svg version="1.1" xmlns="http://www.w3.org/2000/svg" xmlns:xlink="http://www.w3.org/1999/xlink" width="32" height="32" viewBox="0 0 32 32">
<path fill="#444" d="M29.794 2.333l-0.126-0.126c-2.942-2.942-7.756-2.942-10.698 0l-6.816 6.817c-2.942 2.942-2.942 7.756 0 10.697l0.126 0.126c0.245 0.245 0.505 0.466 0.773 0.671l2.495-2.495c-0.291-0.172-0.566-0.377-0.816-0.627l-0.126-0.126c-1.597-1.597-1.597-4.196 0-5.793l6.816-6.816c1.597-1.597 4.196-1.597 5.793 0l0.126 0.126c1.597 1.597 1.597 4.197 0 5.793l-3.084 3.084c0.535 1.322 0.789 2.731 0.767 4.137l4.769-4.769c2.942-2.942 2.942-7.756-0-10.697zM19.72 12.154c-0.245-0.245-0.505-0.466-0.773-0.67l-2.495 2.495c0.291 0.172 0.566 0.377 0.816 0.627l0.126 0.126c1.597 1.597 1.597 4.196 0 5.793l-6.817 6.817c-1.597 1.597-4.196 1.597-5.793 0l-0.126-0.126c-1.597-1.598-1.597-4.196 0-5.793l3.084-3.084c-0.535-1.322-0.789-2.731-0.767-4.137l-4.769 4.769c-2.942 2.942-2.942 7.756 0 10.698l0.126 0.126c2.942 2.942 7.756 2.942 10.698 0l6.816-6.816c2.942-2.942 2.942-7.756 0-10.698l-0.126-0.126z"></path>
</svg>
