<?xml version="1.0" encoding="utf-8"?>
<!-- Generated by IcoMoon.io -->
<!DOCTYPE svg PUBLIC "-//W3C//DTD SVG 1.1//EN" "http://www.w3.org/Graphics/SVG/1.1/DTD/svg11.dtd">
<svg version="1.1" xmlns="http://www.w3.org/2000/svg" xmlns:xlink="http://www.w3.org/1999/xlink" width="32" height="32" viewBox="0 0 32 32">
<path fill="#444" d="M4.48 7.68v3.84h-3.84v-3.84zM1.92 8.96v1.28h1.28v-1.28zM4.48 14.080v3.84h-3.84v-3.84zM1.92 15.36v1.28h1.28v-1.28zM4.48 20.48v3.84h-3.84v-3.84zM1.92 23.040h1.28v-1.28h-1.28zM26.24 7.68v3.84h-19.2v-3.84zM8.32 10.24h16.64v-1.28h-16.64zM31.36 14.080v3.84h-24.32v-3.84zM8.32 15.36v1.28h21.76v-1.28zM22.4 20.48v3.84h-15.36v-3.84zM8.32 21.76v1.28h12.8v-1.28z"></path>
</svg>
