<?xml version="1.0" encoding="utf-8"?>
<!-- Generated by IcoMoon.io -->
<!DOCTYPE svg PUBLIC "-//W3C//DTD SVG 1.1//EN" "http://www.w3.org/Graphics/SVG/1.1/DTD/svg11.dtd">
<svg version="1.1" xmlns="http://www.w3.org/2000/svg" xmlns:xlink="http://www.w3.org/1999/xlink" width="32" height="32" viewBox="0 0 32 32">
<path fill="#444" d="M0 29.333q0-1.111 0.778-1.889l9.074-9.037q-1.852-2.889-1.852-6.407 0-4.963 3.518-8.482t8.482-3.518 8.482 3.518 3.518 8.482-3.518 8.482-8.482 3.518q-3.518 0-6.407-1.852l-9.037 9.074q-0.778 0.778-1.889 0.778t-1.889-0.778-0.778-1.889zM12 12q0 3.296 2.352 5.648t5.648 2.352 5.648-2.352 2.352-5.648-2.352-5.648-5.648-2.352-5.648 2.352-2.352 5.648z"></path>
</svg>
