<?xml version="1.0" encoding="utf-8"?>
<!-- Generated by IcoMoon.io -->
<!DOCTYPE svg PUBLIC "-//W3C//DTD SVG 1.1//EN" "http://www.w3.org/Graphics/SVG/1.1/DTD/svg11.dtd">
<svg version="1.1" xmlns="http://www.w3.org/2000/svg" xmlns:xlink="http://www.w3.org/1999/xlink" width="32" height="32" viewBox="0 0 32 32">
<path fill="#444" d="M7.015 25.869c1.174 0.246 2.426 0.369 3.743 0.369 4.653 0 8.54-1.801 11.321-4.956 2.515-2.855 3.938-6.658 3.938-10.303 0-0.058-0-0.104-0.003-0.173-0.003-0.106-0.009-0.221-0.018-0.346-0.026-0.341-0.074-0.696-0.148-1.051-0.195-0.927-0.541-1.691-1.034-2.187-0.903-0.93-2.099-1.46-3.358-1.46-2.509 0-4.528 2.019-4.528 4.528 0 0.419 0.032 0.768 0.098 1.058l0.383 1.658-1.7-0.092c-4.361-0.237-8.359-1.958-11.397-4.831-0.012 0.131-0.018 0.265-0.018 0.402 0 1.526 0.762 2.919 2.022 3.759l3.749 2.5-4.503-0.155c-0.304-0.010-0.605-0.040-0.902-0.089 0.586 1.328 1.77 2.319 3.228 2.607l5.417 1.070-5.335 1.423c-0.247 0.066-0.501 0.118-0.759 0.157 0.817 0.888 1.981 1.444 3.235 1.461l3.574 0.046-2.791 2.233c-1.302 1.042-2.727 1.852-4.215 2.372zM27.297 10.98c0 7.679-5.841 16.539-16.539 16.539-3.281 0-6.366-0.722-8.926-2.363 0.459 0.066 0.919 0.098 1.378 0.098 2.724 0 5.25-1.181 7.219-2.756-2.527-0.033-4.693-1.739-5.414-4.036 0.361 0.066 0.722 0.099 1.083 0.099 0.525 0 1.050-0.066 1.542-0.197-2.658-0.525-4.66-2.888-4.66-5.775 0.788 0.427 1.674 0.689 2.625 0.722-1.575-1.050-2.592-2.822-2.592-4.824 0-1.083 0.295-1.969 0.788-2.822 2.888 3.511 7.154 5.71 11.977 5.972-0.098-0.427-0.131-0.886-0.131-1.345 0-3.216 2.592-5.808 5.808-5.808 1.668 0 3.173 0.717 4.255 1.827 1.293-0.265 2.521-0.753 3.622-1.4-0.423 1.333-1.329 2.474-2.527 3.197 0.002 0.005 0.004 0.010 0.005 0.015 1.167-0.134 2.271-0.46 3.309-0.915-0.781 1.172-1.757 2.183-2.862 3 0.038 0.41 0.038 0.698 0.038 0.774z"></path>
</svg>
