<?xml version="1.0" encoding="utf-8"?> <!-- Generator: IcoMoon.io --> <!DOCTYPE svg PUBLIC "-//W3C//DTD SVG 1.1//EN" "http://www.w3.org/Graphics/SVG/1.1/DTD/svg11.dtd"> <svg width="32" height="32" viewBox="0 0 32 32" version="1.1" xmlns="http://www.w3.org/2000/svg" xmlns:xlink="http://www.w3.org/1999/xlink" xmlns:sketch="http://www.bohemiancoding.com/sketch/ns" fill="#000000"> <g><path d="M 7.015,25.869 C 8.189,26.116 9.441,26.239 10.758,26.239 C 15.412,26.239 19.299,24.438 22.079,21.283 C 24.594,18.428 26.017,14.625 26.017,10.98 C 26.017,10.922 26.017,10.876 26.015,10.807 C 26.011,10.701 26.006,10.585 25.996,10.461 C 25.97,10.12 25.922,9.765 25.848,9.41 C 25.652,8.483 25.307,7.719 24.814,7.223 C 23.911,6.293 22.716,5.763 21.456,5.763 C 18.947,5.763 16.928,7.782 16.928,10.291 C 16.928,10.71 16.96,11.059 17.026,11.348 L 17.409,13.007 L 15.709,12.914 C 11.348,12.677 7.35,10.956 4.312,8.084 C 4.3,8.215 4.294,8.349 4.294,8.486 C 4.294,10.012 5.056,11.405 6.316,12.245 L 10.066,14.744 L 5.562,14.589 C 5.258,14.579 4.957,14.549 4.661,14.5 C 5.247,15.829 6.431,16.82 7.889,17.108 L 13.306,18.178 L 7.971,19.6 C 7.723,19.666 7.47,19.719 7.212,19.757 C 8.029,20.645 9.193,21.202 10.447,21.218 L 14.021,21.265 L 11.23,23.498 C 9.927,24.539 8.503,25.349 7.015,25.869 Z M 27.297,10.98 C 27.297,18.659 21.456,27.519 10.758,27.519 C 7.477,27.519 4.392,26.797 1.833,25.156 C 2.292,25.222 2.752,25.254 3.211,25.254 C 5.935,25.254 8.461,24.073 10.43,22.498 C 7.903,22.465 5.738,20.759 5.016,18.462 C 5.377,18.527 5.738,18.56 6.099,18.56 C 6.624,18.56 7.149,18.495 7.641,18.363 C 4.983,17.838 2.981,15.476 2.981,12.588 C 3.769,13.015 4.655,13.277 5.606,13.31 C 4.031,12.26 3.014,10.488 3.014,8.486 C 3.014,7.403 3.309,6.517 3.802,5.664 C 6.689,9.175 10.955,11.374 15.779,11.636 C 15.681,11.21 15.648,10.75 15.648,10.291 C 15.648,7.075 18.24,4.483 21.456,4.483 C 23.124,4.483 24.629,5.2 25.711,6.309 C 27.004,6.044 28.233,5.557 29.333,4.909 C 28.91,6.243 28.004,7.383 26.806,8.106 C 26.808,8.111 26.809,8.116 26.811,8.121 C 27.979,7.987 29.082,7.661 30.121,7.206 C 29.339,8.378 28.364,9.389 27.259,10.206 C 27.297,10.616 27.297,10.904 27.297,10.98 Z M 27.297,10.98"></path></g></svg>