<?xml version="1.0" encoding="utf-8"?>
<!-- Generated by IcoMoon.io -->
<!DOCTYPE svg PUBLIC "-//W3C//DTD SVG 1.1//EN" "http://www.w3.org/Graphics/SVG/1.1/DTD/svg11.dtd">
<svg version="1.1" xmlns="http://www.w3.org/2000/svg" xmlns:xlink="http://www.w3.org/1999/xlink" width="32" height="32" viewBox="0 0 32 32">
<path fill="#444" d="M31.36 4.48v23.040h-30.72v-23.040zM1.92 26.24h28.16v-20.48h-28.16zM8.32 16.064c0-4.242 3.438-7.68 7.68-7.68s7.68 3.438 7.68 7.68c0 4.242-3.438 7.68-7.68 7.68s-7.68-3.438-7.68-7.68zM22.4 16.064c0-3.535-2.865-6.4-6.4-6.4s-6.4 2.865-6.4 6.4c0 3.535 2.865 6.4 6.4 6.4s6.4-2.865 6.4-6.4zM13.44 12.224l6.4 3.808-6.4 3.808zM17.337 16.032l-2.617-1.557v3.114z"></path>
</svg>
