<svg style="position: absolute; width: 0; height: 0;" width="0" height="0" version="1.1" xmlns="http://www.w3.org/2000/svg" xmlns:xlink="http://www.w3.org/1999/xlink">
<defs>
<symbol id="add" viewBox="0 0 1024 1024">
	<title>add</title>
	<path fill="rgb(23, 187, 117)" class="path1" d="M512 1024c282.77 0 512-229.23 512-512s-229.23-512-512-512c-282.77 0-512 229.23-512 512s229.23 512 512 512v0zM512 986.764c-262.205 0-474.764-212.559-474.764-474.764s212.559-474.764 474.764-474.764c262.205 0 474.764 212.559 474.764 474.764s-212.559 474.764-474.764 474.764v0z"></path>
	<path fill="rgb(23, 187, 117)" class="path2" d="M763.345 521.309c0 11.038-1.183 20.498-3.548 28.382s-9.329 11.826-20.892 11.826h-177.388v178.177c0 11.038-3.942 17.739-11.826 20.104s-17.345 3.548-28.382 3.548c-11.038 0-20.498-1.183-28.382-3.548s-11.826-9.066-11.826-20.104v-178.177h-177.388c-11.563 0-18.527-3.942-20.892-11.826s-3.548-17.345-3.548-28.382c0-11.037 1.183-20.498 3.548-28.382s9.329-11.826 20.892-11.826h177.388v-177.388c0-11.037 3.942-17.87 11.826-20.498s17.345-3.942 28.382-3.942c11.037 0 20.498 1.314 28.382 3.942s11.826 9.461 11.826 20.498v177.388h177.388c11.563 0 18.527 3.942 20.892 11.826s3.548 17.345 3.548 28.382v0 0z"></path>
</symbol>
<symbol id="move" viewBox="0 0 1057 1024">
	<title>move</title>
	<path fill="#444444" class="path1" d="M231.226 115.613c0 63.851-51.762 115.613-115.613 115.613s-115.613-51.762-115.613-115.613c0-63.851 51.762-115.613 115.613-115.613s115.613 51.762 115.613 115.613z"></path>
	<path fill="#444444" class="path2" d="M627.613 115.613c0 63.851-51.762 115.613-115.613 115.613s-115.613-51.762-115.613-115.613c0-63.851 51.762-115.613 115.613-115.613s115.613 51.762 115.613 115.613z"></path>
	<path fill="#444444" class="path3" d="M1057.032 115.613c0 63.851-51.762 115.613-115.613 115.613s-115.613-51.762-115.613-115.613c0-63.851 51.762-115.613 115.613-115.613s115.613 51.762 115.613 115.613z"></path>
	<path fill="#444444" class="path4" d="M627.613 512c0 63.851-51.762 115.613-115.613 115.613s-115.613-51.762-115.613-115.613c0-63.851 51.762-115.613 115.613-115.613s115.613 51.762 115.613 115.613z"></path>
	<path fill="#444444" class="path5" d="M231.226 512c0 63.851-51.762 115.613-115.613 115.613s-115.613-51.762-115.613-115.613c0-63.851 51.762-115.613 115.613-115.613s115.613 51.762 115.613 115.613z"></path>
	<path fill="#444444" class="path6" d="M231.226 908.387c0 63.851-51.762 115.613-115.613 115.613s-115.613-51.762-115.613-115.613c0-63.851 51.762-115.613 115.613-115.613s115.613 51.762 115.613 115.613z"></path>
</symbol>
<symbol id="text" viewBox="0 0 1138 1024">
	<title>text</title>
	<path fill="rgb(68, 68, 68)" class="path1" d="M716.174 425.586c28.103-23.059 58.008-48.82 89.714-77.284s65.213-59.989 100.523-94.578h47.559v144.839h168.619l-6.485 116.736h-162.133v269.141c0 12.971 1.081 24.14 3.243 33.508s6.125 16.934 11.89 22.699c10.088 10.088 27.743 15.132 52.964 15.132 7.927 0 16.393-0.36 25.401-1.081s16.033-1.441 21.077-2.162c5.044-0.721 9.548-1.261 13.511-1.621s7.386-0.54 10.268-0.54c5.765 0 10.268 2.342 13.511 7.026s5.224 13.151 5.945 25.401c0.721 8.647 1.261 17.294 1.621 25.941s0.54 15.132 0.54 19.456c0 11.53-1.801 20.177-5.404 25.941s-11.529 10.088-23.78 12.971c-12.25 2.882-27.563 5.044-45.938 6.485s-35.849 2.162-52.423 2.162c-33.147 0-61.971-3.603-86.471-10.809s-43.956-19.096-58.368-35.669c-15.133-16.574-25.761-36.57-31.886-59.989s-9.188-50.982-9.188-82.688v-271.303h-83.228c-7.927 0-13.151-2.702-15.673-8.107s-3.783-16.033-3.783-31.886c0-12.971 1.081-23.059 3.243-30.265s7.206-13.691 15.132-19.456v0z"></path>
	<path fill="rgb(68, 68, 68)" class="path2" d="M505.173 932.978c0 13.653-7.054 23.893-21.163 30.72s-40.277 10.24-78.507 10.24c-40.050 0-66.674-3.413-79.872-10.24s-19.797-17.522-19.797-32.085v-744.107h-278.528v-161.109h756.395v161.109h-278.528v745.472z"></path>
</symbol>
<symbol id="minus" viewBox="0 0 1138 1024">
	<title>minus</title>
	<path fill="rgb(68, 68, 68)" class="path1" d="M0 398.222v227.556h1137.778v-227.556h-1137.778z"></path>
</symbol>
<symbol id="plus" viewBox="0 0 1024 1024">
	<title>plus</title>
	<path fill="rgb(68, 68, 68)" class="path1" d="M409.6 1024h204.8v-1024h-204.8v1024z"></path>
	<path fill="rgb(68, 68, 68)" class="path2" d="M0 409.6v204.8h1024v-204.8h-1024z"></path>
</symbol>
<symbol id="rotate" viewBox="0 0 731 1024">
	<title>rotate</title>
	<path fill="rgb(68, 68, 68)" class="path1" d="M36.571 292.571l292.571-292.571v585.143z"></path>
	<path fill="rgb(68, 68, 68)" class="path2" d="M329.143 219.429c222.176 0 402.286 180.109 402.286 402.286s-180.109 402.286-402.286 402.286c-116.682 0-221.761-49.676-295.243-129.033l107.361-99.365c46.761 50.5 113.63 82.112 187.882 82.112 141.385 0 256-114.615 256-256s-114.615-256-256-256v-146.286z"></path>
</symbol>
<symbol id="tick" viewBox="0 0 1229 1024">
	<title>tick</title>
	<path fill="rgb(68, 68, 68)" class="path1" d="M409.211 705.049l-233.625-247.667-144.815 144.815 377.227 377.226 790.033-790.033-144.815-144.815-644.004 660.473z"></path>
</symbol>
<symbol id="bottom" viewBox="0 0 931 1024">
	<title>bottom</title>
	<path fill="rgb(68, 68, 68)" class="path1" d="M0 1024v-93.091h930.909v93.091h-930.909z"></path>
	<path fill="rgb(68, 68, 68)" class="path2" d="M418.909 930.909v-930.909h93.091v930.909h-93.091z"></path>
	<path fill="rgb(68, 68, 68)" class="path3" d="M465.455 977.455l279.273-279.273h-558.545z"></path>
</symbol>
<symbol id="center-align" viewBox="0 0 1138 1024">
	<title>center-align</title>
	<path fill="rgb(68, 68, 68)" class="path1" d="M0 0v113.778h1137.778v-113.778h-1137.778z"></path>
	<path fill="rgb(68, 68, 68)" class="path2" d="M0 455.111v113.778h1137.778v-113.778h-1137.778z"></path>
	<path fill="rgb(68, 68, 68)" class="path3" d="M0 910.222v113.778h1137.778v-113.778h-1137.778z"></path>
	<path fill="rgb(68, 68, 68)" class="path4" d="M227.556 227.556v113.778h682.667v-113.778h-682.667z"></path>
	<path fill="rgb(68, 68, 68)" class="path5" d="M227.556 682.667v113.778h682.667v-113.778h-682.667z"></path>
</symbol>
<symbol id="left-align" viewBox="0 0 1138 1024">
	<title>left-align</title>
	<path fill="rgb(68, 68, 68)" class="path1" d="M0 0v113.778h1137.778v-113.778h-1137.778z"></path>
	<path fill="rgb(68, 68, 68)" class="path2" d="M0 455.111v113.778h1137.778v-113.778h-1137.778z"></path>
	<path fill="rgb(68, 68, 68)" class="path3" d="M0 910.222v113.778h1137.778v-113.778h-1137.778z"></path>
	<path fill="rgb(68, 68, 68)" class="path4" d="M0 227.556v113.778h682.667v-113.778h-682.667z"></path>
	<path fill="rgb(68, 68, 68)" class="path5" d="M0 682.667v113.778h682.667v-113.778h-682.667z"></path>
</symbol>
<symbol id="middle" viewBox="0 0 788 1024">
	<title>middle</title>
	<path fill="rgb(68, 68, 68)" class="path1" d="M0 472.615v78.769h787.692v-78.769h-787.692z"></path>
	<path fill="rgb(68, 68, 68)" class="path2" d="M354.462 0v1024h78.769v-1024h-78.769z"></path>
	<path fill="rgb(68, 68, 68)" class="path3" d="M393.846 512l236.308-236.308h-472.615z"></path>
	<path fill="rgb(68, 68, 68)" class="path4" d="M393.846 512l236.308 236.308h-472.615z"></path>
</symbol>
<symbol id="right-align" viewBox="0 0 1138 1024">
	<title>right-align</title>
	<path fill="rgb(68, 68, 68)" class="path1" d="M1137.778 0v113.778h-1137.778v-113.778h1137.778z"></path>
	<path fill="rgb(68, 68, 68)" class="path2" d="M1137.778 455.111v113.778h-1137.778v-113.778h1137.778z"></path>
	<path fill="rgb(68, 68, 68)" class="path3" d="M1137.778 910.222v113.778h-1137.778v-113.778h1137.778z"></path>
	<path fill="rgb(68, 68, 68)" class="path4" d="M1137.778 227.556v113.778h-682.667v-113.778h682.667z"></path>
	<path fill="rgb(68, 68, 68)" class="path5" d="M1137.778 682.667v113.778h-682.667v-113.778h682.667z"></path>
</symbol>
<symbol id="top" viewBox="0 0 931 1024">
	<title>top</title>
	<path fill="rgb(68, 68, 68)" class="path1" d="M0 0v93.091h930.909v-93.091h-930.909z"></path>
	<path fill="rgb(68, 68, 68)" class="path2" d="M418.909 93.091v930.909h93.091v-930.909h-93.091z"></path>
	<path fill="rgb(68, 68, 68)" class="path3" d="M465.455 46.545l279.273 279.273h-558.545z"></path>
</symbol>
<symbol id="game" viewBox="0 0 1024 1024">
	<title>game</title>
	<path class="path1" d="M874.573 658.936c-23.164 138.599-143.668 244.232-288.845 244.232-161.744 0-292.864-131.12-292.864-292.864 0-17.466 1.529-34.575 4.46-51.2h-264.556v-241.664h317.972l42.476 42.476 42.476-42.476h170.516v0.705c124.804 8.621 228.092 95.436 261.222 211.802 13.931-11.219 31.718-17.947 51.098-17.947 44.678 0 80.896 35.76 80.896 79.872s-36.218 79.872-80.896 79.872c-16.207 0-31.3-4.705-43.955-12.808v0zM878.592 591.872c0-21.373 17.764-38.912 39.936-38.912s39.936 17.539 39.936 38.912c0 21.373-17.764 38.912-39.936 38.912s-39.936-17.539-39.936-38.912zM333.774 358.4h-260.046v159.744h277.487c-11.226 28.543-17.391 59.632-17.391 92.16 0 139.123 112.781 251.904 251.904 251.904s251.904-112.781 251.904-251.904c0-137.069-109.476-248.568-245.76-251.831v-0.073h-139.214l-59.442 59.442-59.442-59.442z"></path>
</symbol>
<symbol id="competition" viewBox="0 0 1024 1024">
	<title>competition</title>
	<path class="path1" d="M244.974 876.846l50.626-295.166-214.45-209.038 296.362-43.064 132.538-268.552 132.538 268.552 296.364 43.064-214.45 209.038 50.624 295.166-265.076-139.36zM169.17 401.242l170.44 166.138-40.234 234.59 210.674-110.758 210.676 110.758-40.236-234.59 170.44-166.138-235.542-34.226-105.338-213.438-105.338 213.438-21.31 3.096z"></path>
</symbol>
<symbol id="republish" viewBox="0 0 1024 1024">
	<title>republish</title>
	<path class="path1" d="M887.466 580.266l-273.066 273.068v-204.8h-341.334v-136.534h341.334v-204.8l204.8 204.8zM1024 580.266l-273.066 273.068h-68.268l273.068-273.068-273.068-273.066h68.268zM460.664 307.144l-0.058-51.144h-443.54v648.534h443.734v-187.166h-102.4l0.922 84.584-233.632-0.342-5.086-441.208 237.694-2.058 0.102 87.118 102.4-0.102-0.136-138.216z"></path>
</symbol>
<symbol id="uni64" viewBox="0 0 1024 1024">
	<title>uni64</title>
	<path class="path1" d="M2.962 203.852q6.518-11.852 18.37-11.852h981.334q11.852 0 18.37 11.852t-1.778 22.518l-490.666 597.334q-7.112 8.296-16.592 8.296-11.852 0-16.592-8.296l-490.666-597.334q-8.296-10.666-1.778-22.518z"></path>
</symbol>
<symbol id="Arrange" viewBox="0 0 1024 1024">
	<title>Arrange</title>
	<path class="path1" d="M0 611.226l278.802-278.836 278.802 278.836-80.35 80.35-198.452-198.52-198.452 198.52-80.35-80.35zM466.262 412.808l80.384-80.418 198.418 198.486 198.486-198.486 80.45 80.418-278.904 278.766-278.834-278.766z"></path>
</symbol>
<symbol id="tweet" viewBox="0 0 1024 1024">
	<title>tweet</title>
	<path class="path1" d="M224.48 827.824c37.566 7.878 77.62 11.814 119.788 11.814 148.91 0 273.288-57.622 362.258-158.594 80.488-91.346 126.020-213.046 126.020-329.684 0-1.846-0.016-3.324-0.082-5.542-0.098-3.386-0.288-7.086-0.59-11.082-0.824-10.904-2.356-22.27-4.748-33.62-6.25-29.65-17.298-54.122-33.072-69.99-28.894-29.764-67.156-46.72-107.462-46.72-80.286 0-144.902 64.616-144.902 144.902 0 13.412 1.016 24.592 3.15 33.844l12.248 53.068-54.384-2.96c-139.556-7.594-267.5-62.654-364.716-154.576-0.386 4.194-0.578 8.474-0.578 12.87 0 48.824 24.394 93.398 64.718 120.28l119.978 79.986-144.11-4.97c-9.73-0.334-19.358-1.288-28.85-2.84 18.764 42.51 56.646 74.218 103.302 83.434l173.328 34.236-170.71 45.524c-7.918 2.11-16.042 3.79-24.294 5.034 26.15 28.416 63.404 46.22 103.528 46.742l114.374 1.484-89.318 71.456c-41.676 33.34-87.272 59.252-134.876 75.904zM873.506 351.36c0 245.718-186.914 529.238-529.238 529.238-105.008 0-203.714-23.102-285.62-75.606 14.702 2.1 29.402 3.15 44.104 3.15 87.156 0 168.012-37.802 231.016-88.206-80.856-1.050-150.162-55.654-173.262-129.16 11.55 2.102 23.1 3.152 34.652 3.152 16.8 0 33.602-2.102 49.354-6.302-85.056-16.8-149.112-92.406-149.112-184.812 25.202 13.65 53.554 22.052 84.006 23.102-50.402-33.604-82.956-90.308-82.956-154.362 0-34.652 9.452-63.004 25.202-90.306 92.408 112.358 228.916 182.712 383.278 191.114-3.15-13.652-4.2-28.352-4.2-43.054 0-102.906 82.956-185.862 185.862-185.862 53.38 0 101.544 22.952 136.172 58.456 41.376-8.482 80.68-24.090 115.898-44.806-13.53 42.672-42.534 79.154-80.876 102.292 0.058 0.158 0.116 0.32 0.174 0.48 37.358-4.288 72.658-14.722 105.904-29.266-25.004 37.506-56.212 69.846-91.57 95.99 1.212 13.118 1.212 22.342 1.212 24.768z"></path>
</symbol>
<symbol id="header" viewBox="0 0 1024 1024">
	<title>header</title>
	<path class="path1" d="M407.472 185.344v-40.96h-284.422v40.96h284.422zM203.776 859.164h40.96v-696.348h-40.96v696.348zM285.696 471.882h450.56v-311.114h-40.96v270.154h-368.64v-268.4h-40.96v309.36zM326.656 551.936h368.64v311.114h40.96v-352.074h-450.56v350.072h40.96v-309.112zM777.216 852.992h40.96v-690.176h-40.96v690.176zM407.472 879.616v-40.96h-284.422v40.96h284.422zM901.040 185.344v-40.96h-284.422v40.96h284.422zM901.040 879.616v-40.96h-284.422v40.96h284.422z"></path>
</symbol>
<symbol id="binopen" viewBox="0 0 960 1024">
	<title>binopen</title>
	<path class="path1" d="M387.648 13.248l452.544 452.544-45.248 45.248-452.544-452.544zM546.048 81.12l226.272 226.272-45.248 45.28-226.304-226.304zM160 576h640v64h-640zM288 640h384v384h-384z"></path>
</symbol>
<symbol id="publish" viewBox="0 0 1024 1024">
	<title>publish</title>
	<path class="path1" d="M887.466 580.266l-273.066 273.068v-204.8h-341.334v-136.534h341.334v-204.8zM460.664 307.144l-0.058-51.144h-443.54v648.534h443.734v-187.166h-102.4l0.922 84.584-233.632-0.342-5.086-441.208 237.694-2.058 0.102 87.118 102.4-0.102-0.136-138.216z"></path>
</symbol>
<symbol id="iframe" viewBox="0 0 1024 1024">
	<title>iframe</title>
	<path class="path1" d="M224.256 510.976c0-45.242 36.678-81.92 81.92-81.92s81.92 36.678 81.92 81.92c0 45.242-36.678 81.92-81.92 81.92s-81.92-36.678-81.92-81.92zM347.136 510.976c0-22.622-18.338-40.96-40.96-40.96s-40.96 18.338-40.96 40.96c0 22.622 18.338 40.96 40.96 40.96s40.96-18.338 40.96-40.96zM429.056 510.976c0-45.242 36.678-81.92 81.92-81.92s81.92 36.678 81.92 81.92c0 45.242-36.678 81.92-81.92 81.92s-81.92-36.678-81.92-81.92zM551.936 510.976c0-22.622-18.338-40.96-40.96-40.96s-40.96 18.338-40.96 40.96c0 22.622 18.338 40.96 40.96 40.96s40.96-18.338 40.96-40.96zM633.856 510.976c0-45.242 36.678-81.92 81.92-81.92s81.92 36.678 81.92 81.92c0 45.242-36.678 81.92-81.92 81.92s-81.92-36.678-81.92-81.92zM756.736 510.976c0-22.622-18.338-40.96-40.96-40.96s-40.96 18.338-40.96 40.96c0 22.622 18.338 40.96 40.96 40.96s40.96-18.338 40.96-40.96zM947.252 512.684l-313.5 312.738 28.88 29.044 343.728-341.782-344.964-342.462-28.858 29.066 314.714 313.396zM32.474 498.162l-14.63 14.522 343.728 341.782 28.882-29.044-314.546-312.738 315.76-313.396-28.858-29.066-330.336 327.94z"></path>
</symbol>
<symbol id="uni75" viewBox="0 0 1024 1024">
	<title>uni75</title>
	<path class="path1" d="M0 938.666q0-35.556 24.888-60.444l290.37-289.186q-59.26-92.444-59.26-205.038 0-158.814 112.592-271.408t271.408-112.592 271.408 112.592 112.592 271.408-112.592 271.408-271.408 112.592q-112.592 0-205.038-59.26l-289.186 290.37q-24.888 24.888-60.444 24.888t-60.444-24.888-24.888-60.444zM384 384q0 105.482 75.26 180.74t180.74 75.26 180.74-75.26 75.26-180.74-75.26-180.74-180.74-75.26-180.74 75.26-75.26 180.74z"></path>
</symbol>
<symbol id="cross2" viewBox="0 0 1024 1024">
	<title>cross2</title>
	<path class="path1" d="M222.378 705.092l96.53 96.53 482.714-482.714-96.53-96.53-482.714 482.714zM318.908 222.378l-96.53 96.53 482.714 482.714 96.53-96.53-482.714-482.714z"></path>
</symbol>
<symbol id="video" viewBox="0 0 1024 1024">
	<title>video</title>
	<path class="path1" d="M1003.52 143.36v737.28h-983.040v-737.28zM61.44 839.68h901.12v-655.36h-901.12zM266.24 514.048c0-135.73 110.030-245.76 245.76-245.76s245.76 110.030 245.76 245.76c0 135.73-110.030 245.76-245.76 245.76s-245.76-110.030-245.76-245.76zM716.8 514.048c0-113.108-91.692-204.8-204.8-204.8s-204.8 91.692-204.8 204.8c0 113.108 91.692 204.8 204.8 204.8s204.8-91.692 204.8-204.8zM430.080 391.168l204.8 121.856-204.8 121.856zM554.776 513.024l-83.736-49.822v99.644z"></path>
</symbol>
<symbol id="image" viewBox="0 0 1024 1024">
	<title>image</title>
	<path class="path1" d="M1003.52 143.36v737.28h-983.040v-737.28zM61.44 839.68h901.12v-655.36h-901.12zM597.272 476.272l326.696 323.28h-819.52l1.102-343.448 120.354-103.848 246.616 243.784zM145.54 758.592h678.802l-227.504-225.124-124.736 119.754-248.086-245.238-77.568 66.93zM675.84 370.688c0-56.554 45.846-102.4 102.4-102.4s102.4 45.846 102.4 102.4c0 56.554-45.846 102.4-102.4 102.4s-102.4-45.846-102.4-102.4zM839.68 370.688c0-33.932-27.508-61.44-61.44-61.44s-61.44 27.508-61.44 61.44c0 33.932 27.508 61.44 61.44 61.44s61.44-27.508 61.44-61.44z"></path>
</symbol>
<symbol id="quote" viewBox="0 0 1024 1024">
	<title>quote</title>
	<path class="path1" d="M101.44 451.632l247.808-246.832 162.288 0.378-246.246 245.382h204.79v368.64h-368.64zM142.4 467.93v310.31h286.72v-286.72h-262.962l246.476-245.612-46.544-0.108zM511.040 451.632l247.808-246.832 162.288 0.378-246.246 245.382h204.79v368.64h-368.64zM552 467.93v310.31h286.72v-286.72h-262.962l246.476-245.612-46.544-0.108z"></path>
</symbol>
<symbol id="embed" viewBox="0 0 1024 1024">
	<title>embed</title>
	<path class="path1" d="M225.28 367.616h704.512v-122.88h-704.512v122.88zM889.406 285.882l0.84 39.638-624.88 0.484 0.044-41.094 623.996 0.972zM20.48 572.416h983.040v-122.88h-983.040v122.88zM60.548 493.172l900.67-2.996-0.092 41.79-900.152-0.062-0.426-38.732zM22.528 777.216h657.408v-122.88h-657.408v122.88zM638.944 696.614l0.062 41.158-576.422-0.146 0.78-42.186 575.58 1.174zM864.486 730.308l14.446-14.464-104.364-104.642-29.002 28.924 76.010 74.966-76.334 76.628 28.978 28.948 90.266-90.36zM36.356 293.692l-14.446 14.464 104.364 104.642 29.002-28.924-77.316-75.612 77.64-75.982-28.98-28.948-90.264 90.36z"></path>
</symbol>
<symbol id="link" viewBox="0 0 1024 1024">
	<title>link</title>
	<path class="path1" d="M953.396 74.642l-4.028-4.042c-94.148-94.134-248.194-94.134-342.326 0l-218.106 218.136c-94.134 94.132-94.134 248.176 0 342.31l4.026 4.026c7.832 7.848 16.146 14.924 24.736 21.458l79.848-79.85c-9.302-5.494-18.126-12.072-26.116-20.060l-4.042-4.042c-51.114-51.098-51.114-134.272 0-185.39l218.128-218.112c51.116-51.118 134.274-51.118 185.386 0l4.042 4.024c51.1 51.116 51.1 134.292 0 185.39l-98.686 98.686c17.132 42.308 25.248 87.4 24.538 132.386l152.604-152.604c94.134-94.136 94.134-248.178-0.004-342.316zM631.042 388.934c-7.832-7.832-16.146-14.922-24.736-21.44l-79.848 79.832c9.304 5.496 18.126 12.074 26.116 20.062l4.042 4.040c51.116 51.116 51.116 134.272 0 185.388l-218.13 218.134c-51.118 51.102-134.276 51.102-185.388 0l-4.042-4.042c-51.098-51.12-51.098-134.276 0-185.388l98.688-98.686c-17.134-42.306-25.246-87.402-24.538-132.386l-152.602 152.598c-94.136 94.132-94.136 248.178 0 342.324l4.026 4.032c94.152 94.128 248.192 94.128 342.328 0l218.11-218.118c94.134-94.132 94.134-248.194 0-342.326l-4.026-4.024z"></path>
</symbol>
<symbol id="view" viewBox="0 0 1024 1024">
	<title>view</title>
	<path class="path1" d="M512 785.066c-238.934 0-443.734-273.066-443.734-273.066s204.8-273.066 443.734-273.066c238.934 0 443.734 273.066 443.734 273.066s-204.8 273.066-443.734 273.066zM512 648.534c75.4 0 136.534-61.134 136.534-136.534s-61.134-136.534-136.534-136.534c-75.4 0-136.534 61.134-136.534 136.534s61.134 136.534 136.534 136.534z"></path>
</symbol>
<symbol id="user" viewBox="0 0 1024 1024">
	<title>user</title>
	<path class="path1" d="M853.334 853.334c-244.782 1.98-488.698 1.98-682.668 0 0-115.598 117.272-212.014 273.068-234.156v-57.172c-40.812-23.61-68.268-67.732-68.268-118.272 0-3.016 0.104-6.008 0.286-8.966-20.56-11.764-34.418-33.918-34.418-59.302s13.858-47.536 34.418-59.3c-0.182-2.958-0.286-5.95-0.286-8.966 0-75.4 61.134-136.534 136.534-136.534s136.534 61.134 136.534 136.534c0 3.016-0.104 6.008-0.286 8.966 20.56 11.764 34.418 33.916 34.418 59.3s-13.858 47.538-34.418 59.302c0.182 2.958 0.286 5.95 0.286 8.966 0 50.54-27.456 94.662-68.268 118.272v57.172c155.796 22.142 273.068 118.558 273.068 234.156z"></path>
</symbol>
<symbol id="edit" viewBox="0 0 1024 1024">
	<title>edit</title>
	<path class="path1" d="M281.11 594.91l377.334-373.452 134.064 134.154-374.864 374.306-136.534 1.104zM898.856 263.85l-70.678 71.054-139.982-140.048 70.668-71.054 32.882 0.272 106.598 104.414zM153.6 256h-68.266v682.666h682.666v-340.218l-136.534 136.762v66.924h-409.6v-409.6h68.268l136.396-136.534h-272.93z"></path>
</symbol>
<symbol id="Tick" viewBox="0 0 1024 1024">
	<title>Tick</title>
	<path class="path1" d="M375.204 640.694l-155.75-165.102-96.54 96.54 251.484 251.482 526.688-526.688-96.54-96.54-429.342 440.308z"></path>
</symbol>
<symbol id="poll" viewBox="0 0 1024 1024">
	<title>poll</title>
	<path class="path1" d="M63.488 266.24h245.76v532.48h-245.76zM104.448 757.76h163.84v-450.56h-163.84zM1004.62 880.64v-40.96h-983.116v40.96h983.116zM392.192 144.384h245.76v653.312h-245.76zM433.152 756.736h163.84v-571.392h-163.84zM718.848 389.12h245.76v409.6h-245.76zM759.808 430.080v327.68h163.84v-327.68z"></path>
</symbol>
<symbol id="bump" viewBox="0 0 1024 1024">
	<title>bump</title>
	<path class="path1" d="M580.266 384h208.418l-273.066-256-273.066 256h201.182v266.65h136.532v-266.65zM170.666 716.8h682.668v136.534h-682.668z"></path>
</symbol>
<symbol id="back" viewBox="0 0 682 1024">
	<title>back</title>
	<path class="path1" d="M512 994.702l160.882-160.882-321.764-321.82 321.764-321.82-160.882-160.882-482.702 482.702 482.702 482.702z"></path>
</symbol>
<symbol id="next" viewBox="0 0 682 1024">
	<title>next</title>
	<path class="path1" d="M190.18 29.298l-160.882 160.882 321.764 321.82-321.764 321.82 160.882 160.882 482.702-482.702-482.702-482.702z"></path>
</symbol>
<symbol id="list" viewBox="0 0 1024 1024">
	<title>list</title>
	<path class="path1" d="M143.36 245.76v122.88h-122.88v-122.88zM61.44 286.72v40.96h40.96v-40.96zM143.36 450.56v122.88h-122.88v-122.88zM61.44 491.52v40.96h40.96v-40.96zM143.36 655.36v122.88h-122.88v-122.88zM61.44 737.28h40.96v-40.96h-40.96zM839.68 245.76v122.88h-614.4v-122.88zM266.24 327.68h532.48v-40.96h-532.48zM1003.52 450.56v122.88h-778.24v-122.88zM266.24 491.52v40.96h696.32v-40.96zM716.8 655.36v122.88h-491.52v-122.88zM266.24 696.32v40.96h409.6v-40.96z"></path>
</symbol>
<symbol id="Text" viewBox="0 0 1024 1024">
	<title>Text</title>
	<path class="path1" d="M638.068 191.506l191.274 191.364-506.776 508.938-191.922-1.596 0.648-189.768zM171.744 849.592l133.946 1.114 465.794-467.782-133.362-133.424-465.928 467.916zM850.324 358.71l-190.434-190.426 96.488-96.962 44.816 0.292 145.020 141.974 0.596 48.162zM717.746 168.212l132.506 132.502 55.388-55.66-0.174-14.036-121.094-118.552-11.078-0.072z"></path>
</symbol>
<symbol id="bin" viewBox="0 0 1024 1024">
	<title>bin</title>
	<path class="path1" d="M170.666 375.466h682.668v68.268h-682.668zM170.666 238.934h682.668v68.266h-682.668zM341.334 170.666h341.332v68.268h-341.332zM307.2 443.734h409.6v409.6h-409.6z"></path>
</symbol>
<symbol id="instagram" viewBox="0 0 1024 1024">
	<title>instagram</title>
	<path class="path1" d="M673.792 354.304h126.976v-126.976h-126.976v126.976zM759.808 268.288v45.056h-45.056v-45.056h45.056z"></path>
	<path class="path2" d="M184.32 491.52v-307.2h655.36v309.248h-144.498c-10.178-91.025-87.392-161.792-181.134-161.792-93.038 0-169.795 69.707-180.894 159.744h-148.834zM184.32 532.48v307.2h655.36v-305.152h-144.498c-10.178 91.025-87.392 161.792-181.134 161.792-94.444 0-172.112-71.83-181.352-163.84h-148.376zM143.36 880.64h737.28v-737.28h-737.28v737.28zM372.736 514.048c0-78.044 63.268-141.312 141.312-141.312s141.312 63.268 141.312 141.312c0 78.044-63.268 141.312-141.312 141.312s-141.312-63.268-141.312-141.312z"></path>
</symbol>
<symbol id="emphasis" viewBox="0 0 1024 1024">
	<title>emphasis</title>
	<path fill="#444444" class="path1" d="M1004.621 880.64v-40.96h-983.117v40.96h983.117z"></path>
	<path fill="#444444" class="path2" d="M1005.645 186.368v-40.96h-983.117v40.96h983.117z"></path>
	<path fill="#444444" class="path3" d="M962.794 532.48v-40.96h-376.904v40.96h376.904z"></path>
	<path fill="#444444" class="path4" d="M837.118 694.272v-40.96h-251.228v40.96h251.228z"></path>
	<path fill="#444444" class="path5" d="M837.118 368.64v-40.96h-251.228v40.96h251.228z"></path>
	<path fill="#444444" class="path6" d="M485.376 314.368v-40.96h-397.312v40.96h397.312z"></path>
	<path fill="#444444" class="path7" d="M256 397.312v-40.96h-167.936v40.96h167.936z"></path>
	<path fill="#444444" class="path8" d="M227.328 753.608h40.96v-397.256h-40.96v397.256z"></path>
	<path fill="#444444" class="path9" d="M309.248 753.608h40.96v-397.256h-40.96v397.256z"></path>
	<path fill="#444444" class="path10" d="M391.339 769.024v-40.96h-204.8v40.96h204.8z"></path>
	<path fill="#444444" class="path11" d="M63.488 231.424h40.96v204.8h-40.96v-204.8z"></path>
	<path fill="#444444" class="path12" d="M473.088 231.424h40.96v204.8h-40.96v-204.8z"></path>
	<path fill="#444444" class="path13" d="M514.048 397.312v-40.96h-204.8v40.96h204.8z"></path>
</symbol>
<symbol id="cross" viewBox="0 0 1024 1024">
	<title>cross</title>
	<path class="path1" d="M222.378 705.092l96.53 96.53 482.714-482.714-96.53-96.53-482.714 482.714zM318.908 222.378l-96.53 96.53 482.714 482.714 96.53-96.53-482.714-482.714z"></path>
</symbol>
<symbol id="default" viewBox="0 0 1024 1024">
	<title>default</title>
	<path fill="rgb(0, 0, 0)" class="path1" d="M365.714 365.714h292.571v292.571h-292.571v-292.571z"></path>
	<path fill="rgb(0, 0, 0)" class="path2" d="M0 365.714h292.571v292.571h-292.571v-292.571z"></path>
	<path fill="rgb(0, 0, 0)" class="path3" d="M0 0h292.571v292.571h-292.571v-292.571z"></path>
	<path fill="rgb(0, 0, 0)" class="path4" d="M731.429 0h292.571v292.571h-292.571v-292.571z"></path>
	<path fill="rgb(0, 0, 0)" class="path5" d="M365.714 0h292.571v292.571h-292.571v-292.571z"></path>
	<path fill="rgb(0, 0, 0)" class="path6" d="M0 731.429h292.571v292.571h-292.571v-292.571z"></path>
	<path fill="rgb(0, 0, 0)" class="path7" d="M731.429 720.53h292.571v292.571h-292.571v-292.571z"></path>
	<path fill="rgb(0, 0, 0)" class="path8" d="M365.714 720.53h292.571v292.571h-292.571v-292.571z"></path>
	<path fill="rgb(0, 0, 0)" class="path9" d="M731.429 365.714h292.571v292.571h-292.571v-292.571z"></path>
</symbol>
</defs>
</svg>
