<svg style="position: absolute; width: 0; height: 0;" width="0" height="0" version="1.1" xmlns="http://www.w3.org/2000/svg" xmlns:xlink="http://www.w3.org/1999/xlink">
<defs>
<symbol id="unorderedlist" viewBox="0 0 32 32">
<title>unorderedlist</title>
<path class="path1" d="M3.429 12.572c-0.953 0-1.762 0.333-2.429 1s-1 1.476-1 2.428c0 0.952 0.333 1.762 1 2.429s1.476 1 2.429 1c0.952 0 1.762-0.333 2.429-1s1-1.476 1-2.429c0-0.953-0.333-1.762-1-2.429s-1.476-1-2.429-1z"></path>
<path class="path2" d="M3.429 3.429c-0.953 0-1.762 0.333-2.429 1s-1 1.476-1 2.429c0 0.952 0.333 1.762 1 2.429s1.476 1 2.429 1c0.952 0 1.762-0.333 2.429-1s1-1.476 1-2.429c0-0.952-0.333-1.762-1-2.429s-1.476-1-2.429-1z"></path>
<path class="path3" d="M3.429 21.715c-0.953 0-1.762 0.333-2.429 1s-1 1.476-1 2.429c0 0.953 0.333 1.762 1 2.429s1.476 1 2.429 1c0.952 0 1.762-0.333 2.429-1s1-1.476 1-2.429c0-0.952-0.333-1.762-1-2.429s-1.476-1-2.429-1z"></path>
<path class="path4" d="M31.831 4.741c-0.113-0.113-0.247-0.169-0.402-0.169h-21.714c-0.155 0-0.289 0.056-0.402 0.169s-0.17 0.247-0.17 0.402v3.429c0 0.155 0.057 0.288 0.17 0.402s0.247 0.169 0.402 0.169h21.714c0.155 0 0.289-0.056 0.402-0.169s0.169-0.247 0.169-0.402v-3.429c-0-0.155-0.057-0.289-0.169-0.402z"></path>
<path class="path5" d="M31.429 13.714h-21.714c-0.155 0-0.289 0.056-0.402 0.17s-0.17 0.247-0.17 0.402v3.429c0 0.155 0.057 0.289 0.17 0.402s0.247 0.17 0.402 0.17h21.714c0.155 0 0.289-0.056 0.402-0.17s0.169-0.247 0.169-0.402v-3.429c0-0.155-0.056-0.289-0.169-0.402s-0.247-0.17-0.402-0.17z"></path>
<path class="path6" d="M31.429 22.857h-21.714c-0.155 0-0.289 0.056-0.402 0.17s-0.17 0.247-0.17 0.402v3.429c0 0.155 0.057 0.289 0.17 0.402s0.247 0.169 0.402 0.169h21.714c0.155 0 0.289-0.056 0.402-0.169s0.169-0.247 0.169-0.402v-3.429c0-0.155-0.056-0.289-0.169-0.402s-0.247-0.17-0.402-0.17z"></path>
</symbol>
<symbol id="orderedlist" viewBox="0 0 32 32">
<title>orderedlist</title>
<path class="path1" d="M4.738 0h-1.903l-2.441 2.279 1.274 1.364c0.503-0.443 0.802-0.766 0.897-0.969h0.036v0.215c0 0.479-0.003 1.202-0.009 2.172s-0.009 1.699-0.009 2.19h-1.92v1.777h6.012v-1.777h-1.938v-7.251z"></path>
<path class="path2" d="M31.776 4.604c-0.114-0.114-0.248-0.17-0.404-0.17h-21.824c-0.156 0-0.29 0.057-0.404 0.17s-0.17 0.248-0.17 0.404v3.446c0 0.156 0.057 0.29 0.17 0.404s0.248 0.17 0.404 0.17h21.824c0.156 0 0.29-0.057 0.404-0.17s0.17-0.248 0.17-0.404v-3.446c0-0.156-0.056-0.29-0.17-0.404z"></path>
<path class="path3" d="M4.631 26.454l1.705-2.064v-1.579h-5.977v2.728h1.902v-0.951c0.191 0 0.482-0.005 0.871-0.017s0.679-0.018 0.87-0.018v0.018c-0.228 0.215-0.449 0.445-0.664 0.691s-0.47 0.568-0.763 0.969c-0.293 0.401-0.487 0.661-0.583 0.781l0.466 1.005c1.256-0.096 1.885 0.239 1.885 1.005 0 0.335-0.129 0.589-0.386 0.762s-0.559 0.261-0.906 0.261c-0.682 0-1.316-0.269-1.902-0.808l-1.023 1.579c0.79 0.79 1.819 1.184 3.087 1.184 0.969 0 1.78-0.275 2.432-0.825s0.978-1.304 0.978-2.261c0-0.61-0.18-1.137-0.538-1.58s-0.843-0.736-1.454-0.879z"></path>
<path class="path4" d="M4.774 18.737h-2.279c0.012-0.299 0.224-0.613 0.637-0.942s0.864-0.631 1.355-0.906c0.49-0.275 0.939-0.661 1.346-1.157s0.61-1.044 0.61-1.642c0-0.85-0.299-1.523-0.897-2.019s-1.334-0.745-2.208-0.745c-0.694 0-1.325 0.17-1.894 0.512s-0.996 0.817-1.283 1.427l1.526 1.059c0.419-0.694 0.903-1.041 1.454-1.041 0.299 0 0.536 0.081 0.709 0.242s0.26 0.392 0.26 0.691c0 0.275-0.141 0.544-0.422 0.808s-0.619 0.523-1.014 0.781c-0.395 0.257-0.79 0.542-1.184 0.853s-0.733 0.718-1.014 1.22c-0.281 0.503-0.422 1.059-0.422 1.669 0 0.215 0.036 0.538 0.108 0.969h6.497v-2.854h-1.884v1.077z"></path>
<path class="path5" d="M31.372 22.811h-21.824c-0.167 0-0.305 0.054-0.413 0.162s-0.161 0.245-0.161 0.413v3.446c0 0.156 0.057 0.29 0.17 0.404s0.248 0.17 0.404 0.17h21.824c0.156 0 0.29-0.056 0.404-0.17s0.17-0.248 0.17-0.404v-3.446c0-0.155-0.057-0.29-0.17-0.404s-0.248-0.171-0.404-0.171z"></path>
<path class="path6" d="M31.372 13.622h-21.824c-0.167 0-0.305 0.054-0.413 0.161s-0.161 0.245-0.161 0.413v3.446c0 0.156 0.057 0.29 0.17 0.404s0.248 0.171 0.404 0.171h21.824c0.156 0 0.29-0.057 0.404-0.171s0.17-0.248 0.17-0.404v-3.446c0-0.156-0.057-0.29-0.17-0.404s-0.248-0.17-0.404-0.17z"></path>
</symbol>
<symbol id="code" viewBox="0 0 32 32">
<title>code</title>
<path class="path1" d="M24.060 10.631l5.843 5.83-0-0.906-5.822 5.818 0.905 0.905 6.275-6.271-6.297-6.283-0.904 0.906z"></path>
<path class="path2" d="M6.991 9.725l-6.297 6.283 6.275 6.271 0.905-0.905-5.822-5.818-0 0.906 5.843-5.83-0.904-0.906z"></path>
<path class="path3" d="M12.317 25.41l8.408-18.885-1.169-0.521-8.668 19.469 1.169 0.521 0.26-0.585z"></path>
</symbol>
<symbol id="fmt-unlink" viewBox="0 0 32 32">
<title>fmt-unlink</title>
<path class="path1" d="M13.424 21.61l-0.96 0.983c-0.421 0.406-0.929 0.609-1.522 0.609s-1.101-0.203-1.522-0.609c-0.203-0.203-0.359-0.433-0.468-0.691s-0.164-0.535-0.164-0.831c0-0.281 0.055-0.55 0.164-0.808s0.265-0.488 0.468-0.691l3.559-3.536c0.375-0.359 0.866-0.71 1.475-1.054s1.171-0.258 1.686 0.258c0.234 0.219 0.515 0.328 0.843 0.328s0.601-0.117 0.82-0.351c0.234-0.234 0.351-0.515 0.351-0.843s-0.117-0.609-0.351-0.843c-0.859-0.843-1.877-1.194-3.056-1.054s-2.322 0.765-3.43 1.873l-3.582 3.536c-0.421 0.437-0.749 0.929-0.983 1.475s-0.351 1.116-0.351 1.709c0 0.609 0.117 1.186 0.351 1.733s0.562 1.038 0.983 1.475c0.437 0.437 0.937 0.765 1.499 0.983s1.132 0.328 1.709 0.328c0.578 0 1.143-0.109 1.698-0.328s1.050-0.546 1.487-0.983l0.983-0.983c0.234-0.219 0.351-0.492 0.351-0.82s-0.117-0.609-0.351-0.843c-0.234-0.234-0.515-0.351-0.843-0.351s-0.609 0.109-0.843 0.328v0 0zM24.265 7.843c-0.937-0.921-1.982-1.401-3.138-1.44s-2.162 0.363-3.020 1.206l-1.218 1.218c-0.234 0.219-0.351 0.492-0.351 0.819s0.117 0.609 0.351 0.843c0.234 0.234 0.515 0.351 0.843 0.351s0.609-0.109 0.843-0.328l1.194-1.218c0.453-0.437 0.941-0.601 1.463-0.492s0.972 0.351 1.346 0.726c0.203 0.203 0.359 0.433 0.468 0.691s0.164 0.535 0.164 0.831c0 0.281-0.055 0.55-0.164 0.808s-0.265 0.488-0.468 0.691l-3.793 3.77c-0.874 0.859-1.538 1.214-1.99 1.065s-0.765-0.316-0.937-0.503c-0.234-0.219-0.515-0.328-0.843-0.328s-0.601 0.117-0.819 0.351c-0.234 0.234-0.351 0.515-0.351 0.843s0.117 0.601 0.351 0.82c0.39 0.406 0.812 0.706 1.264 0.901s0.921 0.293 1.405 0.293c0.578 0 1.171-0.144 1.779-0.433s1.21-0.73 1.803-1.323l3.817-3.77c0.421-0.437 0.749-0.929 0.983-1.475s0.351-1.116 0.351-1.709c0-0.609-0.117-1.186-0.351-1.733s-0.562-1.038-0.983-1.475v0 0z"></path>
<path class="path2" d="M6.857 17.371h19.657v-2.743h-21.029v2.743h1.371z"></path>
</symbol>
<symbol id="add-block" viewBox="0 0 32 32">
<title>add-block</title>
<path class="path1" d="M16 32c8.837 0 16-7.163 16-16s-7.163-16-16-16c-8.837 0-16 7.163-16 16s7.163 16 16 16v0zM16 30.836c-8.194 0-14.836-6.642-14.836-14.836s6.642-14.836 14.836-14.836c8.194 0 14.836 6.642 14.836 14.836s-6.642 14.836-14.836 14.836v0z"></path>
<path class="path2" d="M23.855 16.291c0 0.345-0.037 0.641-0.111 0.887s-0.292 0.37-0.653 0.37h-5.543v5.568c0 0.345-0.123 0.554-0.37 0.628s-0.542 0.111-0.887 0.111c-0.345 0-0.641-0.037-0.887-0.111s-0.37-0.283-0.37-0.628v-5.568h-5.543c-0.361 0-0.579-0.123-0.653-0.37s-0.111-0.542-0.111-0.887c0-0.345 0.037-0.641 0.111-0.887s0.292-0.37 0.653-0.37h5.543v-5.543c0-0.345 0.123-0.558 0.37-0.641s0.542-0.123 0.887-0.123c0.345 0 0.641 0.041 0.887 0.123s0.37 0.296 0.37 0.641v5.543h5.543c0.361 0 0.579 0.123 0.653 0.37s0.111 0.542 0.111 0.887v0 0z"></path>
</symbol>
<symbol id="file" viewBox="0 0 17 32">
<title>file</title>
<path class="path1" d="M9.65 12.281c0 0.441 0 0.441 0 2.122 0 1.34 0 1.34 0 2.844 0 2.937 0 2.937 0 4.656 0 1.095-0.789 1.727-1.813 1.727-1.075 0-1.838-0.589-1.819-1.716 0.013-0.811 0.010-3.096-0.006-7.251-0.002-0.588-0.002-0.588-0.005-1.171-0.017-4.196-0.019-4.725-0.019-5.609 0-1.559 1.422-2.666 3.249-2.666 1.808 0 3.304 1.198 3.304 2.781v14.207c0 2.53-2.051 4.58-4.58 4.58s-4.58-2.051-4.58-4.58v-9.923h-1.259v9.923c0 3.225 2.615 5.84 5.84 5.84s5.84-2.615 5.84-5.84v-14.207c0-2.348-2.113-4.040-4.563-4.040-2.463 0-4.508 1.592-4.508 3.925 0 0.887 0.002 1.415 0.019 5.614 0.002 0.583 0.002 0.583 0.005 1.171 0.016 4.139 0.019 6.428 0.006 7.225-0.032 1.918 1.364 2.997 3.079 2.997 1.666 0 3.073-1.126 3.073-2.986 0-1.719 0-1.719 0-4.656 0-1.504 0-1.504 0-2.844 0-1.68 0-1.68 0-2.122h-1.259z"></path>
</symbol>
<symbol id="fmt-bold" viewBox="0 0 32 32">
<title>fmt-bold</title>
<path class="path1" d="M13.821 23.040l-1.136-3.729h-5.711l-1.136 3.729h-3.579l5.529-15.729h4.061l5.55 15.729h-3.579zM11.893 16.526c-1.050-3.379-1.641-5.289-1.773-5.732s-0.227-0.793-0.284-1.050c-0.236 0.914-0.911 3.175-2.025 6.782h4.082zM26.721 23.040l-0.632-1.629h-0.086c-0.55 0.693-1.116 1.173-1.698 1.441s-1.341 0.402-2.277 0.402c-1.15 0-2.055-0.329-2.716-0.986s-0.991-1.593-0.991-2.807c0-1.271 0.445-2.209 1.334-2.813s2.23-0.938 4.023-1.002l2.079-0.064v-0.525c0-1.214-0.621-1.821-1.864-1.821-0.957 0-2.082 0.289-3.375 0.868l-1.082-2.207c1.379-0.721 2.907-1.082 4.586-1.082 1.607 0 2.839 0.35 3.696 1.050s1.286 1.764 1.286 3.193v7.982h-2.282zM25.757 17.49l-1.264 0.043c-0.95 0.029-1.657 0.2-2.121 0.514s-0.696 0.793-0.696 1.436c0 0.921 0.529 1.382 1.586 1.382 0.757 0 1.363-0.218 1.816-0.654s0.68-1.014 0.68-1.736v-0.986z"></path>
</symbol>
<symbol id="fmt-italic" viewBox="0 0 32 32">
<title>fmt-italic</title>
<path class="path1" d="M13.336 18.058h-5.314l-2.625 4.982h-2.025l8.561-15.664h1.864l1.971 15.664h-1.821l-0.611-4.982zM13.143 16.386l-0.375-3.204c-0.171-1.279-0.275-2.529-0.311-3.75-0.264 0.629-0.552 1.254-0.863 1.875s-1.202 2.314-2.673 5.079h4.221zM23.654 11.083c0.657 0 1.243 0.177 1.757 0.53s0.914 0.863 1.2 1.527h0.118l0.718-1.843h1.361l-2.496 11.743h-1.425l0.279-2.239h-0.086c-1.279 1.636-2.625 2.454-4.039 2.454-0.993 0-1.771-0.354-2.336-1.061s-0.846-1.675-0.846-2.904c0-1.486 0.254-2.864 0.761-4.136s1.207-2.268 2.1-2.989c0.893-0.721 1.871-1.082 2.936-1.082v0zM21.618 21.765c0.693 0 1.382-0.33 2.068-0.991s1.243-1.521 1.671-2.582c0.429-1.061 0.643-2.123 0.643-3.188 0-0.736-0.2-1.321-0.6-1.757s-0.925-0.654-1.575-0.654c-0.743 0-1.434 0.307-2.073 0.921s-1.141 1.446-1.505 2.496c-0.364 1.050-0.546 2.157-0.546 3.321 0 0.814 0.168 1.423 0.504 1.827s0.807 0.605 1.414 0.605v0z"></path>
</symbol>
<symbol id="fmt-link" viewBox="0 0 32 32">
<title>fmt-link</title>
<path class="path1" d="M12.51 21.61l-0.96 0.983c-0.421 0.406-0.929 0.609-1.522 0.609s-1.101-0.203-1.522-0.609c-0.203-0.203-0.359-0.433-0.468-0.691s-0.164-0.535-0.164-0.831c0-0.281 0.055-0.55 0.164-0.808s0.265-0.488 0.468-0.691l3.559-3.536c0.375-0.359 0.866-0.71 1.475-1.054s1.171-0.258 1.686 0.258c0.234 0.219 0.515 0.328 0.843 0.328s0.601-0.117 0.82-0.351c0.234-0.234 0.351-0.515 0.351-0.843s-0.117-0.609-0.351-0.843c-0.859-0.843-1.877-1.194-3.056-1.054s-2.322 0.765-3.43 1.873l-3.582 3.536c-0.421 0.437-0.749 0.929-0.983 1.475s-0.351 1.116-0.351 1.709c0 0.609 0.117 1.186 0.351 1.733s0.562 1.038 0.983 1.475c0.437 0.437 0.937 0.765 1.499 0.983s1.132 0.328 1.709 0.328c0.578 0 1.143-0.109 1.698-0.328s1.050-0.546 1.487-0.983l0.983-0.983c0.234-0.219 0.351-0.492 0.351-0.82s-0.117-0.609-0.351-0.843c-0.234-0.234-0.515-0.351-0.843-0.351s-0.609 0.109-0.843 0.328v0zM23.351 7.843c-0.937-0.921-1.982-1.401-3.138-1.44s-2.162 0.363-3.021 1.206l-1.218 1.218c-0.234 0.219-0.351 0.492-0.351 0.819s0.117 0.609 0.351 0.843c0.234 0.234 0.515 0.351 0.843 0.351s0.609-0.109 0.843-0.328l1.194-1.218c0.453-0.437 0.941-0.601 1.463-0.492s0.972 0.351 1.346 0.726c0.203 0.203 0.359 0.433 0.468 0.691s0.164 0.535 0.164 0.831c0 0.281-0.055 0.55-0.164 0.808s-0.265 0.488-0.468 0.691l-3.793 3.77c-0.874 0.859-1.538 1.214-1.99 1.065s-0.765-0.316-0.937-0.503c-0.234-0.219-0.515-0.328-0.843-0.328s-0.601 0.117-0.819 0.351c-0.234 0.234-0.351 0.515-0.351 0.843s0.117 0.601 0.351 0.82c0.39 0.406 0.812 0.706 1.264 0.901s0.921 0.293 1.405 0.293c0.578 0 1.171-0.144 1.779-0.433s1.21-0.73 1.803-1.323l3.817-3.77c0.421-0.437 0.749-0.929 0.983-1.475s0.351-1.116 0.351-1.709c0-0.609-0.117-1.186-0.351-1.733s-0.562-1.038-0.983-1.475v0z"></path>
</symbol>
<symbol id="fmt-quote" viewBox="0 0 32 32">
<title>fmt-quote</title>
<path class="path1" d="M19.034 21.501l2.964-6.069h-4.516v-9.032h9.032v9.032l-2.964 6.069h-4.516zM6.968 21.501l3.034-6.069h-4.516v-9.032h9.032v9.032l-3.034 6.069h-4.516z"></path>
</symbol>
<symbol id="fmt-heading" viewBox="0 0 32 32">
<title>fmt-heading</title>
<path class="path1" d="M17.716 23.040h-3.311v-6.761h-6.204v6.761h-3.321v-15.664h3.321v6.139h6.204v-6.139h3.311v15.664zM26.496 23.040h-2.483v-6.798l0.024-1.117 0.040-1.221c-0.413 0.412-0.699 0.683-0.86 0.812l-1.35 1.085-1.197-1.495 3.785-3.013h2.041v11.748z"></path>
</symbol>
<symbol id="fmt-quote2" viewBox="0 0 32 32">
<title>fmt-quote2</title>
<path class="path1" d="M19.034 21.501l2.964-6.069h-4.516v-9.032h9.032v9.032l-2.964 6.069h-4.516zM6.968 21.501l3.034-6.069h-4.516v-9.032h9.032v9.032l-3.034 6.069h-4.516z"></path>
</symbol>
<symbol id="move" viewBox="0 0 33 32">
<title>move</title>
<path class="path1" d="M7.226 3.613c0 1.995-1.618 3.613-3.613 3.613s-3.613-1.618-3.613-3.613c0-1.995 1.618-3.613 3.613-3.613s3.613 1.618 3.613 3.613z"></path>
<path class="path2" d="M19.613 3.613c0 1.995-1.618 3.613-3.613 3.613s-3.613-1.618-3.613-3.613c0-1.995 1.618-3.613 3.613-3.613s3.613 1.618 3.613 3.613z"></path>
<path class="path3" d="M33.032 3.613c0 1.995-1.618 3.613-3.613 3.613s-3.613-1.618-3.613-3.613c0-1.995 1.618-3.613 3.613-3.613s3.613 1.618 3.613 3.613z"></path>
<path class="path4" d="M19.613 16c0 1.995-1.618 3.613-3.613 3.613s-3.613-1.618-3.613-3.613c0-1.995 1.618-3.613 3.613-3.613s3.613 1.618 3.613 3.613z"></path>
<path class="path5" d="M7.226 16c0 1.995-1.618 3.613-3.613 3.613s-3.613-1.618-3.613-3.613c0-1.995 1.618-3.613 3.613-3.613s3.613 1.618 3.613 3.613z"></path>
<path class="path6" d="M7.226 28.387c0 1.995-1.618 3.613-3.613 3.613s-3.613-1.618-3.613-3.613c0-1.995 1.618-3.613 3.613-3.613s3.613 1.618 3.613 3.613z"></path>
</symbol>
<symbol id="minus" viewBox="0 0 36 32">
<title>minus</title>
<path fill="#444" class="path1" d="M0 12.444v7.111h35.556v-7.111h-35.556z"></path>
</symbol>
<symbol id="plus" viewBox="0 0 32 32">
<title>plus</title>
<path fill="#444" class="path1" d="M12.8 32h6.4v-32h-6.4v32z"></path>
<path fill="#444" class="path2" d="M0 12.8v6.4h32v-6.4h-32z"></path>
</symbol>
<symbol id="rotate" viewBox="0 0 23 32">
<title>rotate</title>
<path fill="#444" class="path1" d="M1.143 9.143l9.143-9.143v18.286z"></path>
<path fill="#444" class="path2" d="M10.286 6.857c6.943 0 12.571 5.628 12.571 12.571s-5.628 12.571-12.571 12.571c-3.646 0-6.93-1.552-9.226-4.032l3.355-3.105c1.461 1.578 3.551 2.566 5.871 2.566 4.418 0 8-3.582 8-8s-3.582-8-8-8v-4.571z"></path>
</symbol>
<symbol id="tick" viewBox="0 0 38 32">
<title>tick</title>
<path fill="#444" class="path1" d="M12.788 22.033l-7.301-7.74-4.525 4.525 11.788 11.788 24.689-24.689-4.525-4.525-20.125 20.64z"></path>
</symbol>
<symbol id="bottom" viewBox="0 0 29 32">
<title>bottom</title>
<path fill="#444" class="path1" d="M0 32v-2.909h29.091v2.909h-29.091z"></path>
<path fill="#444" class="path2" d="M13.091 29.091v-29.091h2.909v29.091h-2.909z"></path>
<path fill="#444" class="path3" d="M14.545 30.545l8.727-8.727h-17.455z"></path>
</symbol>
<symbol id="center-align" viewBox="0 0 36 32">
<title>center-align</title>
<path fill="#444" class="path1" d="M0 0v3.556h35.556v-3.556h-35.556z"></path>
<path fill="#444" class="path2" d="M0 14.222v3.556h35.556v-3.556h-35.556z"></path>
<path fill="#444" class="path3" d="M0 28.444v3.556h35.556v-3.556h-35.556z"></path>
<path fill="#444" class="path4" d="M7.111 7.111v3.556h21.333v-3.556h-21.333z"></path>
<path fill="#444" class="path5" d="M7.111 21.333v3.556h21.333v-3.556h-21.333z"></path>
</symbol>
<symbol id="left-align" viewBox="0 0 36 32">
<title>left-align</title>
<path fill="#444" class="path1" d="M0 0v3.556h35.556v-3.556h-35.556z"></path>
<path fill="#444" class="path2" d="M0 14.222v3.556h35.556v-3.556h-35.556z"></path>
<path fill="#444" class="path3" d="M0 28.444v3.556h35.556v-3.556h-35.556z"></path>
<path fill="#444" class="path4" d="M0 7.111v3.556h21.333v-3.556h-21.333z"></path>
<path fill="#444" class="path5" d="M0 21.333v3.556h21.333v-3.556h-21.333z"></path>
</symbol>
<symbol id="middle" viewBox="0 0 25 32">
<title>middle</title>
<path fill="#444" class="path1" d="M0 14.769v2.462h24.615v-2.462h-24.615z"></path>
<path fill="#444" class="path2" d="M11.077 0v32h2.462v-32h-2.462z"></path>
<path fill="#444" class="path3" d="M12.308 16l7.385-7.385h-14.769z"></path>
<path fill="#444" class="path4" d="M12.308 16l7.385 7.385h-14.769z"></path>
</symbol>
<symbol id="right-align" viewBox="0 0 36 32">
<title>right-align</title>
<path class="path1" d="M35.556 0v3.556h-35.556v-3.556h35.556z"></path>
<path class="path2" d="M35.556 14.222v3.556h-35.556v-3.556h35.556z"></path>
<path class="path3" d="M35.556 28.444v3.556h-35.556v-3.556h35.556z"></path>
<path class="path4" d="M35.556 7.111v3.556h-21.333v-3.556h21.333z"></path>
<path class="path5" d="M35.556 21.333v3.556h-21.333v-3.556h21.333z"></path>
</symbol>
<symbol id="top" viewBox="0 0 29 32">
<title>top</title>
<path fill="#444" class="path1" d="M0 0v2.909h29.091v-2.909h-29.091z"></path>
<path fill="#444" class="path2" d="M13.091 2.909v29.091h2.909v-29.091h-2.909z"></path>
<path fill="#444" class="path3" d="M14.545 1.455l8.727 8.727h-17.455z"></path>
</symbol>
<symbol id="game" viewBox="0 0 32 32">
<title>game</title>
<path class="path1" d="M27.33 20.592c-0.724 4.331-4.49 7.632-9.026 7.632-5.055 0-9.152-4.098-9.152-9.152 0-0.546 0.048-1.080 0.139-1.6h-8.267v-7.552h9.937l1.327 1.327 1.327-1.327h5.329v0.022c3.9 0.269 7.128 2.982 8.163 6.619 0.435-0.351 0.991-0.561 1.597-0.561 1.396 0 2.528 1.117 2.528 2.496s-1.132 2.496-2.528 2.496c-0.506 0-0.978-0.147-1.374-0.4v0zM27.456 18.496c0-0.668 0.555-1.216 1.248-1.216s1.248 0.548 1.248 1.216c0 0.668-0.555 1.216-1.248 1.216s-1.248-0.548-1.248-1.216zM10.43 11.2h-8.126v4.992h8.671c-0.351 0.892-0.543 1.863-0.543 2.88 0 4.348 3.524 7.872 7.872 7.872s7.872-3.524 7.872-7.872c0-4.283-3.421-7.768-7.68-7.87v-0.002h-4.35l-1.858 1.858-1.858-1.858z"></path>
</symbol>
<symbol id="competition" viewBox="0 0 32 32">
<title>competition</title>
<path class="path1" d="M7.655 27.401l1.582-9.224-6.702-6.532 9.261-1.346 4.142-8.392 4.142 8.392 9.261 1.346-6.702 6.532 1.582 9.224-8.284-4.355zM5.287 12.539l5.326 5.192-1.257 7.331 6.584-3.461 6.584 3.461-1.257-7.331 5.326-5.192-7.361-1.070-3.292-6.67-3.292 6.67-0.666 0.097z"></path>
</symbol>
<symbol id="republish" viewBox="0 0 32 32">
<title>republish</title>
<path class="path1" d="M27.733 18.133l-8.533 8.533v-6.4h-10.667v-4.267h10.667v-6.4l6.4 6.4zM32 18.133l-8.533 8.533h-2.133l8.533-8.533-8.533-8.533h2.133zM14.396 9.598l-0.002-1.598h-13.861v20.267h13.867v-5.849h-3.2l0.029 2.643-7.301-0.011-0.159-13.788 7.428-0.064 0.003 2.722 3.2-0.003-0.004-4.319z"></path>
</symbol>
<symbol id="uni64" viewBox="0 0 32 32">
<title>uni64</title>
<path class="path1" d="M0.093 6.37q0.204-0.37 0.574-0.37h30.667q0.37 0 0.574 0.37t-0.056 0.704l-15.333 18.667q-0.222 0.259-0.518 0.259-0.37 0-0.518-0.259l-15.333-18.667q-0.259-0.333-0.056-0.704z"></path>
</symbol>
<symbol id="move-up-down" viewBox="0 0 32 32">
<title>move-up-down</title>
<path class="path1" d="M0 19.101l8.713-8.714 8.713 8.714-2.511 2.511-6.202-6.204-6.202 6.204-2.511-2.511zM14.571 12.9l2.512-2.513 6.201 6.203 6.203-6.203 2.514 2.513-8.716 8.711-8.714-8.711z"></path>
</symbol>
<symbol id="tweet" viewBox="0 0 32 32">
<title>tweet</title>
<path class="path1" d="M7.015 25.869c1.174 0.246 2.426 0.369 3.743 0.369 4.653 0 8.54-1.801 11.321-4.956 2.515-2.855 3.938-6.658 3.938-10.303 0-0.058-0-0.104-0.003-0.173-0.003-0.106-0.009-0.221-0.018-0.346-0.026-0.341-0.074-0.696-0.148-1.051-0.195-0.927-0.541-1.691-1.034-2.187-0.903-0.93-2.099-1.46-3.358-1.46-2.509 0-4.528 2.019-4.528 4.528 0 0.419 0.032 0.768 0.098 1.058l0.383 1.658-1.7-0.092c-4.361-0.237-8.359-1.958-11.397-4.831-0.012 0.131-0.018 0.265-0.018 0.402 0 1.526 0.762 2.919 2.022 3.759l3.749 2.5-4.503-0.155c-0.304-0.010-0.605-0.040-0.902-0.089 0.586 1.328 1.77 2.319 3.228 2.607l5.417 1.070-5.335 1.423c-0.247 0.066-0.501 0.118-0.759 0.157 0.817 0.888 1.981 1.444 3.235 1.461l3.574 0.046-2.791 2.233c-1.302 1.042-2.727 1.852-4.215 2.372zM27.297 10.98c0 7.679-5.841 16.539-16.539 16.539-3.281 0-6.366-0.722-8.926-2.363 0.459 0.066 0.919 0.098 1.378 0.098 2.724 0 5.25-1.181 7.219-2.756-2.527-0.033-4.693-1.739-5.414-4.036 0.361 0.066 0.722 0.099 1.083 0.099 0.525 0 1.050-0.066 1.542-0.197-2.658-0.525-4.66-2.888-4.66-5.775 0.788 0.427 1.674 0.689 2.625 0.722-1.575-1.050-2.592-2.822-2.592-4.824 0-1.083 0.295-1.969 0.788-2.822 2.888 3.511 7.154 5.71 11.977 5.972-0.098-0.427-0.131-0.886-0.131-1.345 0-3.216 2.592-5.808 5.808-5.808 1.668 0 3.173 0.717 4.255 1.827 1.293-0.265 2.521-0.753 3.622-1.4-0.423 1.333-1.329 2.474-2.527 3.197 0.002 0.005 0.004 0.010 0.005 0.015 1.167-0.134 2.271-0.46 3.309-0.915-0.781 1.172-1.757 2.183-2.862 3 0.038 0.41 0.038 0.698 0.038 0.774z"></path>
</symbol>
<symbol id="heading" viewBox="0 0 32 32">
<title>heading</title>
<path class="path1" d="M12.733 5.792v-1.28h-8.888v1.28h8.888zM6.368 26.849h1.28v-21.761h-1.28v21.761zM8.928 14.746h14.080v-9.722h-1.28v8.442h-11.52v-8.387h-1.28v9.668zM10.208 17.248h11.52v9.722h1.28v-11.002h-14.080v10.94h1.28v-9.66zM24.288 26.656h1.28v-21.568h-1.28v21.568zM12.733 27.488v-1.28h-8.888v1.28h8.888zM28.157 5.792v-1.28h-8.888v1.28h8.888zM28.157 27.488v-1.28h-8.888v1.28h8.888z"></path>
</symbol>
<symbol id="binopen" viewBox="0 0 30 32">
<title>binopen</title>
<path class="path1" d="M12.114 0.414l14.142 14.142-1.414 1.414-14.142-14.142zM17.064 2.535l7.071 7.071-1.414 1.415-7.072-7.072zM5 18h20v2h-20zM9 20h12v12h-12z"></path>
</symbol>
<symbol id="publish" viewBox="0 0 32 32">
<title>publish</title>
<path class="path1" d="M27.733 18.133l-8.533 8.533v-6.4h-10.667v-4.267h10.667v-6.4zM14.396 9.598l-0.002-1.598h-13.861v20.267h13.867v-5.849h-3.2l0.029 2.643-7.301-0.011-0.159-13.788 7.428-0.064 0.003 2.722 3.2-0.003-0.004-4.319z"></path>
</symbol>
<symbol id="iframe" viewBox="0 0 32 32">
<title>iframe</title>
<path class="path1" d="M7.008 15.968c0-1.414 1.146-2.56 2.56-2.56s2.56 1.146 2.56 2.56c0 1.414-1.146 2.56-2.56 2.56s-2.56-1.146-2.56-2.56zM10.848 15.968c0-0.707-0.573-1.28-1.28-1.28s-1.28 0.573-1.28 1.28c0 0.707 0.573 1.28 1.28 1.28s1.28-0.573 1.28-1.28zM13.408 15.968c0-1.414 1.146-2.56 2.56-2.56s2.56 1.146 2.56 2.56c0 1.414-1.146 2.56-2.56 2.56s-2.56-1.146-2.56-2.56zM17.248 15.968c0-0.707-0.573-1.28-1.28-1.28s-1.28 0.573-1.28 1.28c0 0.707 0.573 1.28 1.28 1.28s1.28-0.573 1.28-1.28zM19.808 15.968c0-1.414 1.146-2.56 2.56-2.56s2.56 1.146 2.56 2.56c0 1.414-1.146 2.56-2.56 2.56s-2.56-1.146-2.56-2.56zM23.648 15.968c0-0.707-0.573-1.28-1.28-1.28s-1.28 0.573-1.28 1.28c0 0.707 0.573 1.28 1.28 1.28s1.28-0.573 1.28-1.28zM29.602 16.021l-9.797 9.773 0.902 0.908 10.741-10.681-10.78-10.702-0.902 0.908 9.835 9.794zM1.015 15.568l-0.457 0.454 10.742 10.681 0.903-0.908-9.83-9.773 9.867-9.794-0.902-0.908-10.323 10.248z"></path>
</symbol>
<symbol id="uni75" viewBox="0 0 32 32">
<title>uni75</title>
<path class="path1" d="M0 29.333q0-1.111 0.778-1.889l9.074-9.037q-1.852-2.889-1.852-6.407 0-4.963 3.518-8.482t8.482-3.518 8.482 3.518 3.518 8.482-3.518 8.482-8.482 3.518q-3.518 0-6.407-1.852l-9.037 9.074q-0.778 0.778-1.889 0.778t-1.889-0.778-0.778-1.889zM12 12q0 3.296 2.352 5.648t5.648 2.352 5.648-2.352 2.352-5.648-2.352-5.648-5.648-2.352-5.648 2.352-2.352 5.648z"></path>
</symbol>
<symbol id="cross2" viewBox="0 0 32 32">
<title>cross2</title>
<path class="path1" d="M6.949 22.034l3.017 3.017 15.085-15.085-3.017-3.017-15.085 15.085zM9.966 6.949l-3.017 3.017 15.085 15.085 3.017-3.017-15.085-15.085z"></path>
</symbol>
<symbol id="video" viewBox="0 0 32 32">
<title>video</title>
<path class="path1" d="M31.36 4.48v23.040h-30.72v-23.040zM1.92 26.24h28.16v-20.48h-28.16zM8.32 16.064c0-4.242 3.438-7.68 7.68-7.68s7.68 3.438 7.68 7.68c0 4.242-3.438 7.68-7.68 7.68s-7.68-3.438-7.68-7.68zM22.4 16.064c0-3.535-2.865-6.4-6.4-6.4s-6.4 2.865-6.4 6.4c0 3.535 2.865 6.4 6.4 6.4s6.4-2.865 6.4-6.4zM13.44 12.224l6.4 3.808-6.4 3.808zM17.337 16.032l-2.617-1.557v3.114z"></path>
</symbol>
<symbol id="image" viewBox="0 0 32 32">
<title>image</title>
<path class="path1" d="M31.36 4.48v23.040h-30.72v-23.040zM1.92 26.24h28.16v-20.48h-28.16zM18.665 14.883l10.209 10.102h-25.61l0.034-10.733 3.761-3.245 7.707 7.618zM4.548 23.706h21.213l-7.11-7.035-3.898 3.742-7.753-7.664-2.424 2.092zM21.12 11.584c0-1.767 1.433-3.2 3.2-3.2s3.2 1.433 3.2 3.2c0 1.767-1.433 3.2-3.2 3.2s-3.2-1.433-3.2-3.2zM26.24 11.584c0-1.060-0.86-1.92-1.92-1.92s-1.92 0.86-1.92 1.92c0 1.060 0.86 1.92 1.92 1.92s1.92-0.86 1.92-1.92z"></path>
</symbol>
<symbol id="quote" viewBox="0 0 32 32">
<title>quote</title>
<path class="path1" d="M3.17 14.114l7.744-7.713 5.072 0.012-7.695 7.668h6.4v11.52h-11.52zM4.45 14.623v9.697h8.96v-8.96h-8.218l7.702-7.675-1.454-0.003zM15.97 14.114l7.744-7.713 5.072 0.012-7.695 7.668h6.4v11.52h-11.52zM17.25 14.623v9.697h8.96v-8.96h-8.218l7.702-7.675-1.454-0.003z"></path>
</symbol>
<symbol id="embed" viewBox="0 0 32 32">
<title>embed</title>
<path class="path1" d="M7.040 11.488h22.016v-3.84h-22.016v3.84zM27.794 8.934l0.026 1.239-19.527 0.015 0.001-1.284 19.5 0.030zM0.64 17.888h30.72v-3.84h-30.72v3.84zM1.892 15.412l28.146-0.094-0.003 1.306-28.13-0.002-0.013-1.21zM0.704 24.288h20.544v-3.84h-20.544v3.84zM19.967 21.769l0.002 1.286-18.013-0.005 0.024-1.318 17.987 0.037zM27.015 22.822l0.451-0.452-3.261-3.27-0.906 0.904 2.375 2.343-2.385 2.395 0.906 0.905 2.821-2.824zM1.136 9.178l-0.451 0.452 3.261 3.27 0.906-0.904-2.416-2.363 2.426-2.374-0.906-0.905-2.821 2.824z"></path>
</symbol>
<symbol id="link" viewBox="0 0 32 32">
<title>link</title>
<path class="path1" d="M29.794 2.333l-0.126-0.126c-2.942-2.942-7.756-2.942-10.698 0l-6.816 6.817c-2.942 2.942-2.942 7.756 0 10.697l0.126 0.126c0.245 0.245 0.505 0.466 0.773 0.671l2.495-2.495c-0.291-0.172-0.566-0.377-0.816-0.627l-0.126-0.126c-1.597-1.597-1.597-4.196 0-5.793l6.816-6.816c1.597-1.597 4.196-1.597 5.793 0l0.126 0.126c1.597 1.597 1.597 4.197 0 5.793l-3.084 3.084c0.535 1.322 0.789 2.731 0.767 4.137l4.769-4.769c2.942-2.942 2.942-7.756-0-10.697zM19.72 12.154c-0.245-0.245-0.505-0.466-0.773-0.67l-2.495 2.495c0.291 0.172 0.566 0.377 0.816 0.627l0.126 0.126c1.597 1.597 1.597 4.196 0 5.793l-6.817 6.817c-1.597 1.597-4.196 1.597-5.793 0l-0.126-0.126c-1.597-1.598-1.597-4.196 0-5.793l3.084-3.084c-0.535-1.322-0.789-2.731-0.767-4.137l-4.769 4.769c-2.942 2.942-2.942 7.756 0 10.698l0.126 0.126c2.942 2.942 7.756 2.942 10.698 0l6.816-6.816c2.942-2.942 2.942-7.756 0-10.698l-0.126-0.126z"></path>
</symbol>
<symbol id="view" viewBox="0 0 32 32">
<title>view</title>
<path class="path1" d="M16 24.533c-7.467 0-13.867-8.533-13.867-8.533s6.4-8.533 13.867-8.533c7.467 0 13.867 8.533 13.867 8.533s-6.4 8.533-13.867 8.533zM16 20.267c2.356 0 4.267-1.91 4.267-4.267s-1.91-4.267-4.267-4.267c-2.356 0-4.267 1.91-4.267 4.267s1.91 4.267 4.267 4.267z"></path>
</symbol>
<symbol id="user" viewBox="0 0 32 32">
<title>user</title>
<path class="path1" d="M26.667 26.667c-7.649 0.062-15.272 0.062-21.333 0 0-3.612 3.665-6.625 8.533-7.317v-1.787c-1.275-0.738-2.133-2.117-2.133-3.696 0-0.094 0.003-0.188 0.009-0.28-0.643-0.368-1.076-1.060-1.076-1.853s0.433-1.486 1.076-1.853c-0.006-0.092-0.009-0.186-0.009-0.28 0-2.356 1.91-4.267 4.267-4.267s4.267 1.91 4.267 4.267c0 0.094-0.003 0.188-0.009 0.28 0.642 0.368 1.076 1.060 1.076 1.853s-0.433 1.486-1.076 1.853c0.006 0.092 0.009 0.186 0.009 0.28 0 1.579-0.858 2.958-2.133 3.696v1.787c4.869 0.692 8.533 3.705 8.533 7.317z"></path>
</symbol>
<symbol id="edit" viewBox="0 0 32 32">
<title>edit</title>
<path class="path1" d="M8.785 18.591l11.792-11.67 4.189 4.192-11.714 11.697-4.267 0.035zM28.089 8.245l-2.209 2.22-4.374-4.377 2.208-2.22 1.028 0.009 3.331 3.263zM4.8 8h-2.133v21.333h21.333v-10.632l-4.267 4.274v2.091h-12.8v-12.8h2.133l4.262-4.267h-8.529z"></path>
</symbol>
<symbol id="Tick" viewBox="0 0 32 32">
<title>Tick</title>
<path class="path1" d="M11.725 20.022l-4.867-5.159-3.017 3.017 7.859 7.859 16.459-16.459-3.017-3.017-13.417 13.76z"></path>
</symbol>
<symbol id="poll" viewBox="0 0 32 32">
<title>poll</title>
<path class="path1" d="M1.984 8.32h7.68v16.64h-7.68zM3.264 23.68h5.12v-14.080h-5.12zM31.394 27.52v-1.28h-30.722v1.28h30.722zM12.256 4.512h7.68v20.416h-7.68zM13.536 23.648h5.12v-17.856h-5.12zM22.464 12.16h7.68v12.8h-7.68zM23.744 13.44v10.24h5.12v-10.24z"></path>
</symbol>
<symbol id="bump" viewBox="0 0 32 32">
<title>bump</title>
<path class="path1" d="M18.133 12h6.513l-8.533-8-8.533 8h6.287v8.333h4.267v-8.333zM5.333 22.4h21.333v4.267h-21.333z"></path>
</symbol>
<symbol id="back" viewBox="0 0 21 32">
<title>back</title>
<path class="path1" d="M16 31.084l5.028-5.028-10.055-10.057 10.055-10.057-5.028-5.028-15.084 15.084 15.084 15.084z"></path>
</symbol>
<symbol id="next" viewBox="0 0 21 32">
<title>next</title>
<path class="path1" d="M5.943 0.916l-5.028 5.028 10.055 10.057-10.055 10.057 5.028 5.028 15.084-15.084-15.084-15.084z"></path>
</symbol>
<symbol id="list" viewBox="0 0 32 32">
<title>list</title>
<path class="path1" d="M4.48 7.68v3.84h-3.84v-3.84zM1.92 8.96v1.28h1.28v-1.28zM4.48 14.080v3.84h-3.84v-3.84zM1.92 15.36v1.28h1.28v-1.28zM4.48 20.48v3.84h-3.84v-3.84zM1.92 23.040h1.28v-1.28h-1.28zM26.24 7.68v3.84h-19.2v-3.84zM8.32 10.24h16.64v-1.28h-16.64zM31.36 14.080v3.84h-24.32v-3.84zM8.32 15.36v1.28h21.76v-1.28zM22.4 20.48v3.84h-15.36v-3.84zM8.32 21.76v1.28h12.8v-1.28z"></path>
</symbol>
<symbol id="text" viewBox="0 0 32 32">
<title>text</title>
<path class="path1" d="M19.94 5.985l5.977 5.98-15.837 15.904-5.998-0.050 0.020-5.93zM5.367 26.55l4.186 0.035 14.556-14.618-4.168-4.17-14.56 14.622zM26.573 11.21l-5.951-5.951 3.015-3.030 1.401 0.009 4.532 4.437 0.019 1.505zM22.43 5.257l4.141 4.141 1.731-1.739-0.005-0.439-3.784-3.705-0.346-0.002z"></path>
</symbol>
<symbol id="bin" viewBox="0 0 32 32">
<title>bin</title>
<path class="path1" d="M5.333 11.733h21.333v2.133h-21.333zM5.333 7.467h21.333v2.133h-21.333zM10.667 5.333h10.667v2.133h-10.667zM9.6 13.867h12.8v12.8h-12.8z"></path>
</symbol>
<symbol id="instagram" viewBox="0 0 32 32">
<title>instagram</title>
<path class="path1" d="M21.056 11.072h3.968v-3.968h-3.968v3.968zM23.744 8.384v1.408h-1.408v-1.408h1.408z"></path>
<path class="path2" d="M5.76 15.36v-9.6h20.48v9.664h-4.516c-0.318-2.845-2.731-5.056-5.66-5.056-2.907 0-5.306 2.178-5.653 4.992h-4.651zM5.76 16.64v9.6h20.48v-9.536h-4.516c-0.318 2.845-2.731 5.056-5.66 5.056-2.951 0-5.378-2.245-5.667-5.12h-4.637zM4.48 27.52h23.040v-23.040h-23.040v23.040zM11.648 16.064c0-2.439 1.977-4.416 4.416-4.416s4.416 1.977 4.416 4.416c0 2.439-1.977 4.416-4.416 4.416s-4.416-1.977-4.416-4.416z"></path>
</symbol>
<symbol id="emphasis" viewBox="0 0 32 32">
<title>emphasis</title>
<path class="path1" d="M31.394 27.52v-1.28h-30.722v1.28h30.722z"></path>
<path class="path2" d="M31.426 5.824v-1.28h-30.722v1.28h30.722z"></path>
<path class="path3" d="M30.087 16.64v-1.28h-11.778v1.28h11.778z"></path>
<path class="path4" d="M26.16 21.696v-1.28h-7.851v1.28h7.851z"></path>
<path class="path5" d="M26.16 11.52v-1.28h-7.851v1.28h7.851z"></path>
<path class="path6" d="M15.168 9.824v-1.28h-12.416v1.28h12.416z"></path>
<path class="path7" d="M8 12.416v-1.28h-5.248v1.28h5.248z"></path>
<path class="path8" d="M7.104 23.55h1.28v-12.414h-1.28v12.414z"></path>
<path class="path9" d="M9.664 23.55h1.28v-12.414h-1.28v12.414z"></path>
<path class="path10" d="M12.229 24.032v-1.28h-6.4v1.28h6.4z"></path>
<path class="path11" d="M1.984 7.232h1.28v6.4h-1.28v-6.4z"></path>
<path class="path12" d="M14.784 7.232h1.28v6.4h-1.28v-6.4z"></path>
<path class="path13" d="M16.064 12.416v-1.28h-6.4v1.28h6.4z"></path>
</symbol>
<symbol id="cross" viewBox="0 0 32 32">
<title>cross</title>
<path class="path1" d="M6.949 22.034l3.017 3.017 15.085-15.085-3.017-3.017-15.085 15.085zM9.966 6.949l-3.017 3.017 15.085 15.085 3.017-3.017-15.085-15.085z"></path>
</symbol>
<symbol id="default" viewBox="0 0 32 32">
<title>default</title>
<path class="path1" d="M11.429 11.429h9.143v9.143h-9.143v-9.143z"></path>
<path class="path2" d="M0 11.429h9.143v9.143h-9.143v-9.143z"></path>
<path class="path3" d="M0 0h9.143v9.143h-9.143v-9.143z"></path>
<path class="path4" d="M22.857 0h9.143v9.143h-9.143v-9.143z"></path>
<path class="path5" d="M11.429 0h9.143v9.143h-9.143v-9.143z"></path>
<path class="path6" d="M0 22.857h9.143v9.143h-9.143v-9.143z"></path>
<path class="path7" d="M22.857 22.517h9.143v9.143h-9.143v-9.143z"></path>
<path class="path8" d="M11.429 22.517h9.143v9.143h-9.143v-9.143z"></path>
<path class="path9" d="M22.857 11.429h9.143v9.143h-9.143v-9.143z"></path>
</symbol>
</defs>
</svg>
